<svg xmlns="http://www.w3.org/2000/svg">
    <defs>
        <g id="icon--file-api-collection">
            <path fill="#FFFDED" fill-opacity=".99" fill-rule="nonzero" d="M123 10C56.17 10 2 64.17 2 131s54.17 121 121 121 121-54.17 121-121S189.83 10 123 10z" />
            <path fill="#FFD79F" fill-opacity=".99" fill-rule="nonzero" d="M194.56 71.68h17.92c5.66 0 10.24 4.6 10.24 10.24v17.92c0 5.66-4.6 10.24-10.24 10.24h-17.92c-5.66 0-10.24-4.58-10.24-10.24V81.92c0-5.66 4.6-10.24 10.24-10.24z" />
            <path fill="#EC5A24" fill-rule="nonzero" d="M194.56 72.68c-5.1 0-9.24 4.14-9.24 9.24v17.92c0 5.1 4.14 9.24 9.24 9.24h17.92c5.1 0 9.24-4.14 9.24-9.24V81.92c0-5.1-4.14-9.24-9.24-9.24h-17.92zm0-2h17.92c6.2 0 11.24 5.03 11.24 11.24v17.92c0 6.2-5.03 11.24-11.24 11.24h-17.92c-6.2 0-11.24-5.03-11.24-11.24V81.92c0-6.2 5.03-11.24 11.24-11.24z" />
            <path fill="#FFF" fill-rule="nonzero" d="M202.24 81.92c0-5.66 4.58-10.24 10.24-10.24H53.76c-5.28 0-10.24 5-10.24 10.24v142.2C66.06 243.95 95.62 256 128 256c27.7 0 53.3-8.82 74.24-23.76V81.92z" />
            <path fill="#EF5B25" fill-rule="nonzero" d="M203.24 81.92v150.83C181.1 248.55 155.2 257 128 257c-31.77 0-61.74-11.55-85.14-32.13l-.34-142.95c0-5.8 5.42-11.24 11.24-11.24h158.72v2c-5.1 0-9.24 4.14-9.24 9.24zm-2 0c0-3.83 1.9-7.2 4.84-9.24H53.76c-4.7 0-9.24 4.54-9.24 9.24v141.75C67.52 243.74 96.88 255 128 255c26.6 0 51.95-8.22 73.24-23.28V81.92z" />
            <path fill="#F9CDA8" fill-opacity=".99" fill-rule="nonzero" d="M180.1 153.6H67.9c-2.15 0-3.9 1.72-3.9 3.84s1.75 3.84 3.9 3.84h112.2c2.15 0 3.9-1.72 3.9-3.84s-1.75-3.84-3.9-3.84zm0 17.92H67.9c-2.15 0-3.9 1.72-3.9 3.84s1.75 3.84 3.9 3.84h112.2c2.15 0 3.9-1.72 3.9-3.84s-1.75-3.84-3.9-3.84zm0 17.92H67.9c-2.15 0-3.9 1.72-3.9 3.84s1.75 3.84 3.9 3.84h112.2c2.15 0 3.9-1.72 3.9-3.84s-1.75-3.84-3.9-3.84zm-33.05 17.92h-79.1c-2.18 0-3.95 1.72-3.95 3.84s1.77 3.84 3.95 3.84h79.1c2.18 0 3.95-1.72 3.95-3.84s-1.77-3.84-3.95-3.84z" />
            <path fill="#EC5A24" fill-rule="nonzero" d="M99.02 253.76l.62.16c-2.02-.48-4.15-1.02-6.2-1.66 4.42 1.57 9.84 3 13.53 2.98.32.43 4.84 1.2 4.94 1.14l2.9.18-2-.14 2 .14c3.05.22 6.24.38 9.53.53 1.64 0 3.3.1 5 .08l5.12-.03c1.9-.13 5.47-.2 9-.65l2.65-.27 2.48-.36c1.57-.24 2.95-.4 3.9-.6l1.7-.3-1.88.32c2.32-.6 4.45-1.03 6.46-1.62-.37.04-.44.02-1.3.17l1.04-.23c.92-.37 3.1-.9 4.1-1.22-.2.13.6-.08 1.3-.3l-.28.05 4.17-1.25c1.4-.45 2.72-.97 3.9-1.36.33-.12.58-.18.74-.2.75-.28 1.5-.56 2.22-.9-.14.17 1.86-.65.83-.17 1.6-.77 3.33-1.34 4.82-2.17 5.57-2.43 11.27-5.54 16.5-9.03l-.16.05c1.86-1.17 3.3-2.47 5.56-3.9 1.5-1.2 3.6-2.9 4.1-3.5 1.7-1.34 2.3-2 3.94-3.38-.5.28 1.54-1.4.68-.8-1.2.8-1.18.94-2.18 1.62h.04c-2.2 1.75-4.5 3.34-6.8 4.98-2.36 1.55-4.7 3.14-7.15 4.57-1.58 1.08-3.3 2.03-5.05 3-1.73 1-3.56 1.86-5.3 2.77-.95.5-1.93.96-2.92 1.4l-2.93 1.38-5.55 2.35c-.8.3-1.43.44-2.15.64-1.57.58-3.36 1.23-5.25 1.76l-2.83.86c-.94.28-1.9.5-2.8.75.06 0 .13-.02.17-.03-1.94.5-3.42.8-5.34 1.18 0 .03-.3.1-.43.13-.18-.04-2.98.67-5.88 1.15-2.9.6-5.85.92-6.2.94l-.63.1c-4.13.37-8.43.32-11.98.38-.78.1-1.65.15-2.3.2-.63-.07-.75.03-1.5 0-1.93-.26-3.06-.25-2.07-.1-1.58-.06-3.17-.1-4.57-.23l-1.96-.1c-.56-.02-.87-.08-1.15-.17-1.42-.12-1-.13-2.48-.33-.35-.1-3.75-.33-4.17-.43h.25c-1.72-.24-2.82-.63-4.5-.93-4.6-.9-9.6-2.08-13.77-3.38-.07.07.92.26.93.4l-3.66-1.23-3.65-1.34-1.15-.54c-.76-.34-.47-.14-1.03-.37l-.05-.1c-.85-.27-1.18-.54-1.96-.84-.04 0-.32-.1-.6-.22.02-.1-.84-.35-.77-.4-.17-.08-.3-.12-.5-.22-.32-.07-3.32-1.16-3.65-1.27l-.14-.1c-.43-.2-.65-.2-.4-.08l-.53-.25.07.02-.52-.26c-.1-.06-.2-.15-.02-.1-.3-.13-.65-.28-.94-.44.78.47 1.78 1.03 2.63 1.5-.38-.14-1-.48-1.4-.65-.44-.27-1.36-.78-2.08-1.18-.16-.08-.32-.04-.67-.26-.14-.14-.4-.2-.7-.4.37.15.7.33 1.06.5-.02-.1-.84-.46-1.1-.62-.15-.05-.8-.43-1.24-.63.22.02-.32-.23-.55-.4-.28-.16-.48-.23-.38-.14-.13.03 1.1.65.67.52-.08-.1-.65-.37-.95-.53-.04.03.18.13-.04.06-.33-.18-.7-.32-.88-.47.07.02.2.1.3.15-.43-.24 2.5 1 1.93.7.14.13-2.6-1.06-2.32-.9.26.15-.23-.04.04.12l.33.12c.37.2.5.36.34.3-.64-.33 1.93.7 1.37.44l.2.14c-.23-.1-.86-.4-1.07-.57-.02.05-.34-.1-.6-.22l-.1-.05c-.26-.12-.63-.33-.48-.18 1.55.8-1.25-.14.24.68-.58-.42.26.03.93.37.04.06.3.26.78.54.4.2.26.1.35.1.2.15.64.4.56.42.34.12.5.3.9.47.35.15-.02-.03.24.06.52.25 1.23.62 1.65.83.12.13.57.44.2.34-.8-.4.34.03-.5-.35.32.27-.72-.33-.9-.33.23.17.76.43 1.2.63l-.08-.05c.4.18 1.2.54 1.6.78-.12 0 .05.1-.24-.02l.54.25c.07 0 .15.03 0-.05.27.1.52.22.7.34.04.06 2.98 1.13 2.9 1.1.4.16.46.26.86.38.02 0-.22-.1-.57-.23l-1.26-.48c-.9-.36-1.73-.7-1.47-.58.3.22 4.58 1.73 4.8 1.9.3.12.65.25.6.18.5.2-.18.02.16.2 0 0-.02-.04.1 0l.32.2c.8.23 1.92.75 2.78.98-.26-.05-.56-.08-1.1-.24l-.1-.06c-.06 0-.5-.16-.5-.12.48.22.92.37 1.46.54l.27.14V249c.16.08.14.08.07.08h-.04c.28.22 2.02.6 2.93 1 .28.07.03-.02.38.07.94.37 1.6.6 2.6.94.33.04.36.03 0-.15l.74.25c-.73-.07 1.37.58.57.48.22.1.68.23 1.12.33.05 0 .13-.05.67.1.73.25.54.2 1.16.4.14.1-.1.04-.08.1.98.2.8.33 1.73.54.58.13 1.7.4 1.76.32.77.2.75.25.66.3m139.12-57.7l.2-.3c-.63 1.02-1.34 2.1-2.04 3.13.85-1.1 1.76-2.3 2.53-3.48.8-1.18 1.34-2.42 1.62-3.48.38-.04 1.85-2.28 1.8-2.37.2-.52.4-1.04.63-1.57l-.47 1.08.48-1.08c.7-1.65 1.56-3.3 2.34-5.06.82-1.73 1.72-3.5 2.5-5.35.96-2.03 3.12-7.7 3.85-9.87l.33-.94-.4 1.03.95-3.78c-.1.2-.16.22-.37.7l.2-.6c.06-.57.38-1.84.48-2.45.04.15.17-.32.3-.73l-.1.15c.45-1.56.87-3.4 1.16-4.82.04-.2.1-.34.14-.43l.24-1.37c.06.13.32-1.1.24-.45.12-1.04.38-2.06.42-3.06.62-3.5 1.03-7.26 1.22-10.92l-.04.1c.04-1.3-.06-2.43.12-3.98 0-1.1-.1-2.7-.25-3.14.03-1.27-.06-1.8-.07-3.04-.1.32-.08-1.2-.17-.6-.16.83-.05.87-.18 1.58l.04-.02c-.14 1.63-.2 3.27-.35 4.9l-.48 4.94c-.2 2.2-.5 4.6-.84 6.86-.37 2.45-.73 5.1-1.15 7.2-.07.5-.22.84-.35 1.26-.32 1.93-1.06 4.3-1.55 6.47l.03-.1c-.26 1.15-.66 1.94-.97 3.05.03 0-.02.17-.03.26-.1.08-.5 1.72-1 3.36s-1 3.3-1.1 3.48l-.12.35c-.4 1.13-.98 2.23-1.48 3.3-.52 1.07-.98 2.12-1.4 3.07-.13.43-.3.9-.4 1.3-.2.3-.13.4-.33.8-.7.9-.9 1.55-.56 1.07-.36.85-.76 1.7-1.14 2.4l-.47 1.06c-.13.3-.25.44-.38.56-.34.76-.3.5-.7 1.28-.1.07-.32.57-.54 1.1-.22.5-.45 1-.52 1.1l.06-.13c-.52.88-1 1.38-1.5 2.23-.7 1.2-1.45 2.4-2.2 3.6-.77 1.18-1.45 2.4-2.2 3.4.05.08.3-.46.4-.42-.86 1.24-1.8 2.42-2.7 3.65-.16.2-.4.46-.5.54-.3.35-.13.24-.35.52h-.1c-.26.44-.54.53-.8.94 0 .04-.1.18-.2.32-.08-.05-.32.43-.37.36-.06.1-.1.15-.2.24-.1.2-1 1.78-1.1 2l-.08.05c-.17.22-.2.35-.08.24l-.22.26.02-.04-.22.25c-.05.05-.13.08-.1-.02-.1.17-.22.34-.35.48.38-.37.87-.83 1.3-1.2-.13.2-.43.48-.58.68-.24.2-.67.64-1 .98-.07.08-.04.2-.22.36-.13.04-.17.2-.34.33.12-.2.27-.36.42-.54-.1 0-.4.4-.53.54-.04.08-.34.4-.5.63.02-.14-.18.15-.32.25-.13.14-.18.25-.1.2 0 .1.5-.54.4-.28-.07.03-.3.32-.42.48.05.03.13-.08.08.05-.15.16-.26.38-.38.44l.13-.14c-.2.22.76-1.4.54-1.1.1-.04-.83 1.45-.7 1.3.12-.12-.02.15.1.02l.1-.2c.16-.17.3-.2.26-.1-.27.3.5-1.13.32-.82l.1-.1c-.06.14-.3.47-.44.56.05.03-.07.2-.17.33l-.04.04c-.1.14-.27.33-.15.28.65-.8-.08.82.58.07-.35.26 0-.17.28-.52.06 0 .22-.13.44-.35.17-.22.08-.15.1-.2.1-.1.3-.32.32-.26.1-.2.25-.23.4-.44.1-.2-.04 0 .04-.15l.7-.8c.1-.06.38-.25.3-.02-.34.4.02-.22-.3.2.23-.1-.28.38-.28.5.15-.1.37-.35.54-.58l-.04.03c.15-.2.45-.6.67-.78-.02.07.08 0-.03.15l.23-.27c.02-.04.04-.08-.03 0 .08-.16.2-.27.3-.36.05-.02.97-1.6.96-1.54.15-.2.23-.2.35-.43 0-.04-1.34 2-1.15 1.73.17-.14 1.55-2.4 1.7-2.48.12-.15.25-.33.2-.32.2-.24 0 .12.16-.03 0 0-.03 0 0-.06l.2-.14c.22-.43.74-.94.95-1.42-.05.16-.07.35-.24.64l-.04.03c-.02.05-.17.27-.13.3.2-.24.37-.46.52-.76.05-.03.1-.08.13-.12.07-.07.07-.06.06-.02v.02c.2-.08.63-1.05 1-1.5.1-.14 0 0 .1-.2.37-.45.63-.76 1-1.25.07-.2.06-.22-.12-.05l.28-.37c-.12.43.6-.63.46-.17.1-.1.28-.3.4-.54-.03-.06-.05-.12.12-.4l.45-.57c.1-.05.03.08.07.1.26-.54.36-.4.64-.86.17-.3.53-.87.47-.93.26-.4.3-.35.34-.28m15.9-96.8l-.07-.36c.27 1.18.56 2.43.77 3.67-.13-1.37-.37-2.85-.65-4.24-.16-.7-.33-1.37-.54-1.98-.22-.6-.48-1.16-.77-1.63.24-.3-.33-2.92-.42-2.95-.2-.52-.4-1.04-.63-1.57.15.37.3.73.42 1.1-.12-.37-.27-.73-.42-1.1-.68-1.66-1.26-3.43-1.9-5.24-.68-1.8-1.27-3.68-2-5.56-.4-1.03-1.17-2.96-2-4.87l-2.2-4.84-.45-.9.48 1c-.74-1.2-1.4-2.3-2.04-3.32.07.2.04.26.23.75l-.27-.57c-.4-.43-.98-1.6-1.36-2.1.13.1-.1-.34-.32-.7l.05.16c-.82-1.4-1.8-3.02-2.58-4.24-.12-.16-.18-.3-.2-.4l-.8-1.13c.12.04-.58-1-.17-.5-.67-.8-1.16-1.73-1.84-2.47-1.05-1.43-2.12-2.92-3.25-4.38-1.18-1.42-2.35-2.86-3.56-4.23l.02.1c-.88-.94-1.76-1.68-2.72-2.9-.8-.78-1.94-1.87-2.38-2.06-.9-.9-1.3-1.2-2.2-2.1.15.3-.92-.8-.54-.3.46.7.58.65.98 1.24v-.03c1.06 1.27 2.18 2.46 3.2 3.75l3.14 3.83c1.4 1.7 2.92 3.58 4.24 5.47.73 1 1.5 2.02 2.25 3.02.7 1.02 1.4 2 2 2.9.3.4.44.75.64 1.13 1.06 1.64 2.3 3.8 3.44 5.7 0-.05-.03-.08-.04-.1.56 1.02.9 1.84 1.45 2.84 0-.02.1.14.15.2.06.2 3.22 5.94 3.33 6.33l.16.34c.88 2.27 1.72 4.63 2.42 6.57l.64 1.2c.08.35.2.38.35.8.16 1.14.5 1.72.37 1.15.35.85.6 1.75.86 2.52l.42 1.07c.12.32.14.5.13.67.3.8.16.57.4 1.4-.02.24.73 2.08.78 2.33l-.05-.13c.26.97.27 1.67.53 2.62.34 1.32.62 2.73.95 4.1l.48 2.03.36 1.95c.1 0-.12-.55 0-.6.25 1.48.42 2.98.67 4.48v.74c.03.48.08.27.12.62l-.08.06c.14.5 0 .76.1 1.24.05.02.07.2.1.37-.1 0 .07.5 0 .5 0 .1.03.18.03.3.05.2.57 2 .6 2.2v.1c.02.28.1.4.1.23l.02.34v-.04l.02.34c0 .06-.04.14-.1.04.06.2.1.42.1.6 0-.53.02-1.2.06-1.77.05.23.04.65.08.9-.03.3-.03.92-.03 1.4.02.1.13.16.1.4-.06.13.03.27 0 .47-.06-.22-.06-.44-.08-.67-.08.05 0 .56 0 .75.02.08.04.52.1.8-.1-.1-.04.23-.07.4 0 .2.05.3.07.23.1.06-.02-.75.1-.5-.04.08 0 .45.03.65.05 0 .02-.14.08-.02 0 .23.1.46.05.58-.02-.03-.02-.12-.02-.18.03.28-.44-1.53-.38-1.16.04-.1.43 1.6.4 1.42.02-.18.1.12.1-.07l-.07-.18c0-.25.07-.36.1-.27.04.4-.4-1.16-.33-.8V118c.05.15.1.54.08.7.04 0 .08.2.1.37v.06c.05.17.06.4.1.3-.1-1.02.53.64.47-.35-.06.42-.12-.14-.17-.57.03-.04.06-.23.06-.55-.03-.27-.05-.16-.08-.2 0-.16 0-.45.06-.4-.1-.22 0-.36-.04-.6-.05-.23-.03 0-.07-.15l-.07-1.07c.04-.1.1-.43.2-.2.03.5-.15-.2-.08.33.1-.23.07.47.17.56.03-.18 0-.52-.04-.8v.06c-.04-.25-.1-.76-.07-1.04.04.06.06-.06.1.13l-.03-.35c-.02-.05-.04-.1-.04 0-.04-.15-.04-.32-.03-.44.06-.05-.42-1.83-.4-1.77-.02-.24.03-.3-.04-.55-.05-.02.46 2.37.4 2.04.02-.23-.6-2.8-.54-2.97-.03-.2-.07-.4-.1-.36-.03-.3.1.08.1-.14 0 0-.02.02-.03-.05l.02-.23c-.13-.47-.14-1.2-.3-1.7.07.15.17.3.26.63v.06c0 .04.07.3.1.3 0-.32-.05-.6-.14-.9v-.2.02c0-.1 0-.1.04-.06v.02c.1-.22-.3-1.2-.33-1.78-.05-.16-.02 0-.08-.2-.07-.6-.1-1-.2-1.6-.08-.2-.1-.2-.1.04l-.08-.46c.22.4-.02-.87.2-.44 0-.14-.03-.42-.1-.67-.04 0-.1-.03-.16-.35-.04-.46-.04-.35-.08-.73.03-.1.08.04.1 0-.18-.54 0-.5-.13-1.03-.1-.34-.25-1-.34-1-.1-.45-.03-.47.05-.44M188.48 14.3l-.33-.2c1.08.56 2.18 1.23 3.27 1.86-2.24-1.6-5.05-3.28-7.2-3.7-.07-.38-2.44-1.6-2.52-1.56l-1.6-.57 1.1.4-1.1-.4c-1.68-.6-3.43-1.24-5.2-2l-5.52-2.1c-1.06-.36-3-1.05-5-1.66-2-.57-4-1.2-5.1-1.5l-.98-.24 1.07.3-3.83-.65c.2.1.22.15.7.32l-.6-.17c-.57 0-1.86-.24-2.47-.3.14-.05-.33-.15-.75-.24l.16.07c-.8-.17-1.66-.32-2.5-.47-.85-.14-1.68-.23-2.4-.34-.2-.03-.34-.08-.43-.1L145.87.9c.12-.08-1.13-.25-.47-.2-1.04-.07-2.1-.2-3.1-.2-.87-.1-1.76-.17-2.67-.26-.9-.08-1.83-.1-2.75-.14L134.1 0c-.9 0-1.83.02-2.75.04l.1.03c-1.3.06-2.42.14-3.97.16-1.1.16-2.7.27-3.12.48-1.28.07-1.78.18-3.03.27.33.08-1.2.16-.6.2.85.12.9 0 1.6.1l-.03-.04c3.3.05 6.56-.03 9.88.15h1.7l1.72.1 3.5.22c2.45.24 5.13.38 7.25.65.5.05.85.18 1.28.3 1.95.18 4.38.73 6.56 1.07l-.12-.02c1.16.2 2 .52 3.1.75 0-.02.18 0 .27.02.08.1 1.75.35 3.4.76 1.68.38 3.38.76 3.57.85.12.02.24.05.36.1 2.3.78 4.6 1.72 6.55 2.45l1.32.28c.33.2.43.1.84.28.96.6 1.6.8 1.1.47.86.32 1.7.7 2.48 1l1.08.37c.3.1.46.2.6.32.77.3.52.27 1.3.65.16.16 2.06.77 2.27.9l-.13-.05c.92.43 1.45.87 2.33 1.33l3.74 1.94 3.56 1.97c.07-.08-.5-.27-.47-.4 1.32.74 2.52 1.67 3.82 2.45.22.16.48.38.57.47.4.28.27.1.56.3v.1c.48.22.6.5 1 .73.05-.02.2.08.35.18-.04.07.44.28.38.34.1.05.16.1.26.17.18.1 1.83.88 2.04.98l.07.07c.25.14.38.16.26.05l.27.2-.04-.02.27.2c.05.05.08.13-.02.1.17.1.36.2.5.33l-1.3-1.2c.2.1.52.37.73.5.2.24.67.64 1.04.95.1.06.2.03.37.2.05.13.2.16.34.3-.2-.1-.37-.23-.56-.37 0 .1.43.37.56.5.08.02.43.3.67.45-.13 0 .17.17.28.3.14.12.26.17.2.1.1-.03-.57-.48-.3-.4.03.08.34.28.5.4.03-.04-.1-.1.05-.08.17.14.4.23.47.35l-.16-.12c.23.18-1.45-.66-1.13-.47-.05-.1 1.5.74 1.35.63-.13-.14.15 0 0-.13l-.18-.07c-.2-.16-.23-.28-.14-.26.33.25-1.15-.44-.83-.26l-.1-.1c.13.06.48.27.57.4.03-.04.2.07.35.16l.05.04c.15.08.34.23.3.12-.85-.6.8.02.02-.58.27.32-.18 0-.54-.25-.02-.05-.15-.2-.4-.4-.2-.16-.14-.07-.2-.08-.1-.12-.33-.3-.27-.32-.22-.08-.26-.24-.48-.37-.2-.1 0 .05-.15-.02-.27-.2-.64-.5-.86-.65-.04-.1-.25-.36-.02-.3.4.3-.23 0 .2.3-.1-.23.4.24.54.23-.1-.14-.4-.34-.63-.5l.03.05c-.2-.13-.64-.4-.83-.6.08 0 0-.1.15 0l-.28-.2c-.04-.02-.1-.04 0 .03-.17-.07-.3-.17-.4-.26 0-.06-1.63-.88-1.57-.87-.2-.14-.23-.22-.46-.32-.04 0 2.1 1.2 1.8 1.03-.15-.15-2.5-1.4-2.58-1.54-.15-.1-.35-.22-.33-.15-.25-.2.12 0-.05-.17 0 0 0 .03-.05 0l-.15-.18c-.44-.2-1.02-.64-1.5-.84.15.05.34.07.64.2l.04.05c.05 0 .3.14.3.1-.25-.2-.48-.32-.8-.45l-.12-.13v.02c-.1-.1-.07-.1-.03-.08h.03c-.1-.2-1.1-.57-1.55-.92l-.2-.08c-.5-.34-.8-.6-1.33-.92-.2-.05-.22-.04-.04.12l-.4-.24c.45.08-.67-.53-.2-.43-.1-.1-.34-.24-.58-.34-.04.03-.1.06-.4-.1-.36-.26-.25-.2-.58-.42-.06-.08.07-.03.08-.07-.54-.22-.4-.33-.88-.6-.3-.14-.9-.46-.96-.4-.4-.23-.38-.27-.3-.3m-97.7-9.1l-.35.1c1.17-.36 2.4-.74 3.6-1.04-1.34.23-2.8.57-4.17.95-.7.2-1.34.42-1.94.68-.6.27-1.12.56-1.57.88-.32-.23-2.9.53-2.9.62-.52.23-1.02.48-1.53.73.35-.15.7-.34 1.05-.5-.35.16-.7.35-1.05.5-1.6.82-3.34 1.5-5.1 2.28-1.74.8-3.6 1.52-5.4 2.38-1 .5-2.88 1.38-4.73 2.34L62 17.64l-.86.5.97-.54-3.17 2.26c.2-.08.26-.06.73-.28l-.56.3c-.4.42-1.52 1.1-2 1.52.08-.14-.32.13-.68.36l.16-.06c-1.34.92-2.9 2-4.04 2.87-.17.12-.3.2-.4.23l-1.07.88c.04-.14-.95.63-.46.18-.76.73-1.66 1.28-2.35 2-1.37 1.16-2.78 2.32-4.15 3.55-1.34 1.28-2.7 2.55-3.97 3.86l.08-.04c-.87.95-1.54 1.87-2.7 2.92-.7.84-1.72 2.06-1.9 2.5-.84.96-1.1 1.4-1.93 2.35.3-.18-.74.96-.27.56.67-.52.6-.63 1.17-1.07l-.04-.02c1.18-1.14 2.3-2.34 3.5-3.45l3.6-3.4c.8-.76 1.66-1.54 2.53-2.32l1.3-1.15 1.34-1.12 2.87-2.46 2.73-2.2c.4-.33.73-.5 1.1-.7 1.56-1.2 3.63-2.58 5.43-3.85l-.1.05c1-.64 1.8-1.02 2.75-1.64-.02-.02.13-.12.2-.18.18-.07 5.7-3.63 6.08-3.77l.3-.18c1.1-.53 2.24-1.02 3.32-1.5.55-.25 1.08-.5 1.6-.72l1.48-.65c.38-.25.82-.5 1.14-.73.35-.1.37-.22.78-.4 1.13-.23 1.68-.6 1.12-.44.82-.42 1.7-.72 2.46-1.05l1.03-.47c.3-.15.48-.18.66-.18.76-.35.55-.2 1.37-.5.22 0 2-.88 2.25-.94l-.13.07c.96-.32 1.65-.38 2.58-.7 1.3-.45 2.7-.8 4.03-1.25l2-.6c.65-.2 1.3-.35 1.9-.5 0-.1-.52.16-.58.04 1.45-.35 2.95-.62 4.42-.98.27-.03.6-.05.73-.05.48-.06.27-.1.62-.16l.07.07c.48-.17.75-.06 1.2-.2.03-.03.2-.07.37-.1.03.08.52-.12.52-.04l.3-.06c.18-.06 1.94-.7 2.14-.75h.1c.27-.05.38-.14.2-.13l.35-.05-.05.02.34-.05c.05-.02.13 0 .04.07.2-.06.4-.12.6-.13-.55.03-1.22.06-1.8.06.23-.07.65-.1.9-.14.3.02.92-.03 1.4-.07.1-.03.16-.14.4-.14.13.05.26-.04.47-.03-.2.08-.43.1-.66.13.05.07.56-.04.74-.04.1-.04.53-.1.8-.15-.1.1.23 0 .4.02.2-.03.3-.08.22-.1.05-.1-.74.08-.5-.05.08.03.44-.05.63-.08 0-.05-.13 0 0-.08.2-.03.43-.13.56-.1l-.2.04c.28-.05-1.5.55-1.13.46-.1-.03 1.57-.54 1.4-.5-.2 0 .1-.1-.08-.1l-.2.1c-.25 0-.37-.05-.28-.1.4-.06-1.13.5-.78.4h-.15c.14-.05.53-.14.7-.12 0-.04.18-.1.35-.14h.06c.18-.05.42-.08.3-.12-1 .17.6-.57-.38-.43.42.02-.13.1-.56.2-.04-.03-.24-.05-.56-.03-.27.05-.15.06-.2.1-.15 0-.44.03-.4-.03-.2.1-.35 0-.6.08-.22.06.02.02-.13.08l-1.07.14c-.1-.03-.44-.07-.22-.18.5-.07-.18.15.35.05-.25-.06.46-.1.54-.2-.18-.02-.52.04-.8.1h.06c-.25.06-.74.16-1.03.15.06-.05-.06-.06.12-.1l-.35.05c-.04 0-.08.03.02.03-.17.05-.33.06-.46.06-.05-.06-1.8.54-1.74.5-.24.05-.32 0-.55.1-.02.04 2.33-.64 2-.56-.2 0-2.74.8-2.9.75-.2.03-.4.1-.36.12-.32.04.07-.1-.16-.1 0 0 .02.02-.05.04h-.23c-.47.15-1.2.22-1.67.4.13-.07.28-.18.6-.3l.06.02c.04-.03.3-.1.3-.14-.33.04-.6.1-.9.2h-.2l.02.03c-.1 0-.1 0-.06-.03l.02-.02c-.22-.07-1.18.38-1.75.46-.17.06-.02.03-.22.1-.57.1-.98.16-1.58.3-.17.1-.18.1.06.1l-.45.1c.38-.24-.86.1-.45-.16-.14 0-.4.06-.66.15-.02.04-.05.1-.36.2-.45.05-.34.05-.7.1-.1 0 0-.07 0-.1-.55.23-.52.05-1.05.22-.33.1-.98.3-.97.4-.44.12-.46.07-.44 0M10.6 76.52l-.16.34c.5-1.1 1-2.28 1.6-3.4-1.42 2.36-2.95 5.26-3.15 7.46-.4.1-1.5 2.52-1.43 2.6l-.43 1.64c.1-.37.2-.74.32-1.12l-.32 1.12c-1 3.45-2.2 7.13-3.36 11-.27 1.07-.84 3.07-1.3 5.1-.45 2.03-.9 4.07-1.1 5.2l-.2.98c.1-.55.1-.55.23-1.1-.12 1.4-.3 2.66-.38 3.88.08-.2.13-.24.25-.73l-.1.6c.05.6-.12 1.9-.14 2.5-.06-.13-.13.35-.2.77l.07-.16c-.24 1.6-.3 3.5-.47 4.94 0 .2-.05.35-.1.44 0 .47 0 .93-.02 1.4-.07-.12-.13 1.14-.15.48.05 1.04-.08 2.1-.02 3.1C0 125.3-.02 127.15 0 129c.06 1.84.17 3.7.33 5.52l.03-.1c.12 1.3.37 2.4.43 3.96.2 1.1.4 2.66.65 3.08.16 1.26.3 1.76.5 3 .07-.34.28 1.18.28.56.03-.84-.1-.87-.07-1.58l-.03.03c-.24-3.28-.42-6.55-.5-9.87-.17-2.2-.17-4.6-.12-6.9.02-1.25-.02-2.54.03-3.8l.1-3.5c-.02-.5.1-.87.2-1.3l.25-3.22c.1-1.14.28-2.3.38-3.4v.1c.12-1.16.32-2.02.5-3.15-.02 0 0-.17 0-.26.1-.1.28-1.76.52-3.46.27-1.68.53-3.4.6-3.6l.07-.36c.62-2.34 1.42-4.72 2-6.7.05-.46.14-.96.17-1.35.16-.34.07-.44.2-.87.6-1 .7-1.65.43-1.12.24-.9.55-1.76.8-2.55.08-.37.18-.73.3-1.1.08-.3.18-.47.3-.6.24-.8.22-.55.54-1.37.15-.16.58-2.12.72-2.33l-.04.14c.4-.95.8-1.5 1.17-2.42.52-1.27 1.12-2.58 1.68-3.87.55-1.3 1.15-2.54 1.72-3.68-.07-.06-.22.52-.35.5.67-1.36 1.43-2.67 2.17-4 .15-.22.34-.5.43-.6.25-.4.1-.26.27-.57h.1c.18-.5.42-.63.63-1.07-.02-.04.06-.2.15-.34.1.03.26-.47.32-.4.05-.1.08-.17.16-.27l.85-2.1.06-.1c.13-.23.14-.37.04-.23l.18-.3-.02.04.18-.3c.04-.04.1-.08.1.02.07-.18.17-.37.3-.53-.32.4-.72.9-1.1 1.4.08-.2.33-.55.45-.77.2-.23.57-.72.85-1.1.05-.1 0-.2.17-.4.1-.06.13-.22.28-.37-.1.22-.22.4-.35.6.1 0 .35-.46.46-.6.02-.1.27-.45.4-.7 0 .15.16-.16.3-.28.1-.16.13-.28.07-.23-.04-.1-.44.6-.38.34.06-.03.24-.36.35-.53-.04-.02-.1.1-.07-.03.12-.2.2-.42.3-.5 0 .04-.06.12-.1.17.16-.24-.56 1.5-.4 1.16-.08.06.64-1.54.54-1.38-.1.14 0-.15-.1 0l-.07.2c-.15.2-.27.24-.25.15.22-.35-.36 1.17-.2.85l-.1.1c.05-.14.24-.5.36-.6-.04-.03.06-.2.13-.36l.03-.06c.07-.16.2-.36.1-.3-.53.88-.03-.82-.58 0 .3-.3 0 .2-.2.56-.06.02-.2.16-.4.4-.13.25-.05.17-.05.23-.1.1-.27.35-.3.3-.05.2-.2.26-.32.48-.1.22.03.02-.03.17l-.6.9c-.1.06-.33.28-.28.05.28-.43 0 .23.27-.23-.2.12.23-.43.2-.56-.13.12-.3.4-.45.66l.03-.04c-.12.23-.36.67-.55.88 0-.07-.1.02 0-.15l-.18.3c0 .03-.02.08.03 0-.05.15-.15.3-.23.4-.06 0-.77 1.7-.77 1.63-.12.2-.2.23-.3.47.03.04 1.08-2.16.93-1.86-.15.16-1.24 2.57-1.38 2.67-.1.18-.2.38-.13.36-.16.27-.03-.12-.17.06 0 0 .03 0 0 .05l-.15.17c-.17.46-.58 1.06-.74 1.55 0-.16.02-.35.14-.66l.05-.04c0-.05.1-.3.07-.3-.17.25-.3.5-.4.8-.05.05-.1.1-.12.15-.06.1-.06.07-.06.03v-.02c-.2.1-.5 1.12-.83 1.6-.06.16 0 .02-.06.22-.3.5-.5.85-.8 1.4-.03.2-.02.22.13.03l-.2.42c.04-.45-.5.7-.44.23-.1.1-.23.36-.32.6.02.04.06.1-.08.4-.24.38-.18.27-.4.6-.07.07-.03-.06-.07-.06-.2.54-.3.4-.5.9-.14.33-.4.96-.34 1-.2.43-.25.4-.3.33m-2.27 98.1l.12.34c-.43-1.13-.88-2.33-1.27-3.53.7 2.65 1.58 5.8 3.03 7.5-.2.34.73 2.84.83 2.86.26.5.55.97.84 1.46-.2-.33-.38-.67-.57-1 .2.33.38.67.57 1 .9 1.55 1.7 3.23 2.62 4.93.9 1.67 1.75 3.47 2.74 5.2.57.98 1.57 2.8 2.67 4.56l2.87 4.5.56.8-.6-.92c.88 1.1 1.7 2.1 2.46 3-.1-.2-.1-.25-.34-.7l.34.52c.44.38 1.2 1.44 1.65 1.88-.14-.06.16.33.4.67l-.06-.15c1 1.27 2.17 2.75 3.13 3.83.13.16.2.3.26.37l.94 1.02c-.14-.02.7.92.22.46.77.7 1.38 1.57 2.17 2.2 1.23 1.28 2.48 2.6 3.82 3.88 1.36 1.26 2.7 2.53 4.1 3.7l-.03-.07c1 .8 1.96 1.4 3.1 2.5.88.65 2.17 1.57 2.63 1.7 1 .8 1.46 1.03 2.47 1.78-.2-.27 1.02.68.58.24-.56-.63-.67-.57-1.15-1.1v.04c-1.22-1.1-2.5-2.13-3.7-3.26-1.2-1.13-2.4-2.24-3.62-3.36-.83-.74-1.66-1.54-2.5-2.35l-1.25-1.2c-.4-.44-.8-.85-1.2-1.27l-2.66-2.7-2.38-2.57c-.36-.36-.54-.7-.8-1.05-1.3-1.45-2.8-3.43-4.2-5.14l.06.1c-.7-.94-1.14-1.7-1.83-2.63-.02.02-.12-.12-.2-.18-.07-.18-4-5.42-4.17-5.8l-.2-.3c-.6-1.06-1.18-2.15-1.74-3.2l-1.58-2.97c-.27-.37-.56-.8-.8-1.1-.13-.34-.25-.35-.45-.74-.3-1.1-.72-1.64-.53-1.1-.48-.77-.83-1.64-1.2-2.36l-.57-1c-.16-.3-.2-.47-.23-.64-.4-.74-.23-.54-.6-1.34-.02-.22-1-1.95-1.08-2.2l.07.14c-.4-.94-.5-1.62-.9-2.53-.54-1.25-1-2.6-1.52-3.92-.52-1.3-1.02-2.6-1.38-3.82-.1 0 .2.52.1.6-.47-1.44-.84-2.9-1.3-4.35-.05-.26-.1-.6-.1-.72-.1-.48-.12-.27-.2-.6l.06-.08c-.2-.47-.12-.75-.28-1.2-.04-.02-.1-.2-.14-.36.08-.03-.15-.5-.07-.5-.03-.1-.06-.18-.08-.3-.08-.2-.85-1.9-.9-2.1v-.1c-.08-.27-.17-.37-.15-.2l-.07-.34v.04l-.06-.33c0-.06.02-.14.08-.05-.08-.18-.14-.4-.17-.58.07.53.14 1.2.2 1.77-.1-.2-.15-.63-.2-.87-.02-.3-.12-.92-.2-1.4-.02-.1-.13-.14-.14-.4.03-.12-.08-.25-.07-.45.1.2.12.43.17.66.07-.06-.08-.56-.1-.74-.04-.08-.1-.52-.2-.8.1.1 0-.22 0-.4-.03-.18-.1-.28-.1-.2-.1-.05.12.74-.03.5.03-.08-.07-.43-.12-.63-.05.02 0 .15-.08.04-.04-.22-.15-.44-.13-.57l.05.2c-.07-.3.64 1.45.53 1.1-.02.1-.64-1.55-.6-1.36.02.18-.1-.1-.1.08l.12.2c.04.23-.02.35-.07.27-.1-.4.58 1.1.45.75v.15c-.05-.15-.17-.53-.16-.7-.04 0-.1-.18-.16-.34v-.05c-.06-.16-.1-.4-.14-.28.24 1-.6-.56-.4.4 0-.42.13.13.24.55-.02.05-.03.25.02.56.07.26.07.15.1.2.02.14.07.43 0 .4.12.2.05.34.13.6.08.2.02-.03.1.1.05.34.15.8.2 1.07-.02.1-.03.44-.16.24-.12-.5.16.15.02-.37-.06.25-.14-.45-.25-.52 0 .18.07.52.15.8v-.06c.07.24.2.73.22 1-.06-.04-.06.08-.1-.1l.06.34c.02.04.05.08.03-.02.07.16.1.32.1.45-.04.06.67 1.75.63 1.7.07.25.03.32.13.55.03 0-.8-2.28-.7-1.96.02.2.98 2.67.95 2.85.05.17.12.4.15.34.07.3-.1-.08-.08.14 0 0 .02-.02.03.05v.2c.2.46.32 1.18.55 1.65-.1-.13-.2-.27-.34-.58v-.06c-.02-.03-.1-.3-.15-.27.07.3.15.57.28.87v.2l.03-.02c.02.1 0 .1-.02.06l-.02-.02c-.05.23.47 1.15.6 1.7.06.17 0 .02.1.2.14.58.23.98.4 1.57.1.16.14.17.1-.08l.14.45c-.27-.35.15.86-.14.47 0 .14.1.4.2.64.04 0 .1.03.2.34l.2.7c-.02.1-.1-.02-.12 0 .27.53.1.52.3 1.03.13.3.38.94.46.93.16.43.1.45.03.44" />
            <text fill="#5F6C7D" font-family="Lato-Regular, Lato" font-size="18">
                <tspan x="64" y="109">Akeneo PIM </tspan>
                <tspan x="64" y="131">API collection</tspan>
            </text>
        </g>
        <g id="icon--file-env-template">
            <path fill="#FFFDED" fill-opacity=".99" fill-rule="nonzero" d="M123 10C56.17 10 2 64.17 2 131s54.17 121 121 121 121-54.17 121-121S189.83 10 123 10z" />
            <path fill="#FFD79F" fill-opacity=".99" fill-rule="nonzero" d="M194.56 71.68h17.92c5.66 0 10.24 4.6 10.24 10.24v17.92c0 5.66-4.6 10.24-10.24 10.24h-17.92c-5.66 0-10.24-4.58-10.24-10.24V81.92c0-5.66 4.6-10.24 10.24-10.24z" />
            <path fill="#EC5A24" fill-rule="nonzero" d="M194.56 72.68c-5.1 0-9.24 4.14-9.24 9.24v17.92c0 5.1 4.14 9.24 9.24 9.24h17.92c5.1 0 9.24-4.14 9.24-9.24V81.92c0-5.1-4.14-9.24-9.24-9.24h-17.92zm0-2h17.92c6.2 0 11.24 5.03 11.24 11.24v17.92c0 6.2-5.03 11.24-11.24 11.24h-17.92c-6.2 0-11.24-5.03-11.24-11.24V81.92c0-6.2 5.03-11.24 11.24-11.24z" />
            <path fill="#FFF" fill-rule="nonzero" d="M202.24 81.92c0-5.66 4.58-10.24 10.24-10.24H53.76c-5.28 0-10.24 5-10.24 10.24v142.2C66.06 243.95 95.62 256 128 256c27.7 0 53.3-8.82 74.24-23.76V81.92z" />
            <path fill="#EF5B25" fill-rule="nonzero" d="M203.24 81.92v150.83C181.1 248.55 155.2 257 128 257c-31.77 0-61.74-11.55-85.14-32.13l-.34-142.95c0-5.8 5.42-11.24 11.24-11.24h158.72v2c-5.1 0-9.24 4.14-9.24 9.24zm-2 0c0-3.83 1.9-7.2 4.84-9.24H53.76c-4.7 0-9.24 4.54-9.24 9.24v141.75C67.52 243.74 96.88 255 128 255c26.6 0 51.95-8.22 73.24-23.28V81.92z" />
            <path fill="#F9CDA8" fill-opacity=".99" fill-rule="nonzero" d="M180.44 153.6h-37.76c-.73 0-1.32 1.72-1.32 3.84s.6 3.84 1.32 3.84h37.76c.73 0 1.32-1.72 1.32-3.84s-.6-3.84-1.32-3.84zm-19.54 17.92h-18.88c-.36 0-.66 1.72-.66 3.84s.3 3.84.66 3.84h18.88c.36 0 .66-1.72.66-3.84s-.3-3.84-.66-3.84zm19.54 17.92h-37.76c-.73 0-1.32 1.72-1.32 3.84s.6 3.84 1.32 3.84h37.76c.73 0 1.32-1.72 1.32-3.84s-.6-3.84-1.32-3.84zm-11.4 17.92h-26.36c-.73 0-1.32 1.72-1.32 3.84s.6 3.84 1.32 3.84h26.35c.72 0 1.3-1.72 1.3-3.84s-.58-3.84-1.3-3.84zM121.08 153.6H65.92c-1.06 0-1.92 1.72-1.92 3.84s.86 3.84 1.92 3.84h55.16c1.06 0 1.92-1.72 1.92-3.84s-.86-3.84-1.92-3.84zm0 17.92H65.92c-1.06 0-1.92 1.72-1.92 3.84s.86 3.84 1.92 3.84h55.16c1.06 0 1.92-1.72 1.92-3.84s-.86-3.84-1.92-3.84zm0 17.92H65.92c-1.06 0-1.92 1.72-1.92 3.84s.86 3.84 1.92 3.84h55.16c1.06 0 1.92-1.72 1.92-3.84s-.86-3.84-1.92-3.84zm-.76 17.92H66.68c-1.48 0-2.68 1.72-2.68 3.84s1.2 3.84 2.68 3.84h53.64c1.48 0 2.68-1.72 2.68-3.84s-1.2-3.84-2.68-3.84z" />
            <path fill="#EC5A24" fill-rule="nonzero" d="M99.02 253.76l.62.16c-2.02-.48-4.15-1.02-6.2-1.66 4.42 1.57 9.84 3 13.53 2.98.32.43 4.84 1.2 4.94 1.14l2.9.18-2-.14 2 .14c3.05.22 6.24.38 9.53.53 1.64 0 3.3.1 5 .08l5.12-.03c1.9-.13 5.47-.2 9-.65l2.65-.27 2.48-.36c1.57-.24 2.95-.4 3.9-.6l1.7-.3-1.88.32c2.32-.6 4.45-1.03 6.46-1.62-.37.04-.44.02-1.3.17l1.04-.23c.92-.37 3.1-.9 4.1-1.22-.2.13.6-.08 1.3-.3l-.28.05 4.17-1.25c1.4-.45 2.72-.97 3.9-1.36.33-.12.58-.18.74-.2.75-.28 1.5-.56 2.22-.9-.14.17 1.86-.65.83-.17 1.6-.77 3.33-1.34 4.82-2.17 5.57-2.43 11.27-5.54 16.5-9.03l-.16.05c1.86-1.17 3.3-2.47 5.56-3.9 1.5-1.2 3.6-2.9 4.1-3.5 1.7-1.34 2.3-2 3.94-3.38-.5.28 1.54-1.4.68-.8-1.2.8-1.18.94-2.18 1.62h.04c-2.2 1.75-4.5 3.34-6.8 4.98-2.36 1.55-4.7 3.14-7.15 4.57-1.58 1.08-3.3 2.03-5.05 3-1.73 1-3.56 1.86-5.3 2.77-.95.5-1.93.96-2.92 1.4l-2.93 1.38-5.55 2.35c-.8.3-1.43.44-2.15.64-1.57.58-3.36 1.23-5.25 1.76l-2.83.86c-.94.28-1.9.5-2.8.75.06 0 .13-.02.17-.03-1.94.5-3.42.8-5.34 1.18 0 .03-.3.1-.43.13-.18-.04-2.98.67-5.88 1.15-2.9.6-5.85.92-6.2.94l-.63.1c-4.13.37-8.43.32-11.98.38-.78.1-1.65.15-2.3.2-.63-.07-.75.03-1.5 0-1.93-.26-3.06-.25-2.07-.1-1.58-.06-3.17-.1-4.57-.23l-1.96-.1c-.56-.02-.87-.08-1.15-.17-1.42-.12-1-.13-2.48-.33-.35-.1-3.75-.33-4.17-.43h.25c-1.72-.24-2.82-.63-4.5-.93-4.6-.9-9.6-2.08-13.77-3.38-.07.07.92.26.93.4l-3.66-1.23-3.65-1.34-1.15-.54c-.76-.34-.47-.14-1.03-.37l-.05-.1c-.85-.27-1.18-.54-1.96-.84-.04 0-.32-.1-.6-.22.02-.1-.84-.35-.77-.4-.17-.08-.3-.12-.5-.22-.32-.07-3.32-1.16-3.65-1.27l-.14-.1c-.43-.2-.65-.2-.4-.08l-.53-.25.07.02-.52-.26c-.1-.06-.2-.15-.02-.1-.3-.13-.65-.28-.94-.44.78.47 1.78 1.03 2.63 1.5-.38-.14-1-.48-1.4-.65-.44-.27-1.36-.78-2.08-1.18-.16-.08-.32-.04-.67-.26-.14-.14-.4-.2-.7-.4.37.15.7.33 1.06.5-.02-.1-.84-.46-1.1-.62-.15-.05-.8-.43-1.24-.63.22.02-.32-.23-.55-.4-.28-.16-.48-.23-.38-.14-.13.03 1.1.65.67.52-.08-.1-.65-.37-.95-.53-.04.03.18.13-.04.06-.33-.18-.7-.32-.88-.47.07.02.2.1.3.15-.43-.24 2.5 1 1.93.7.14.13-2.6-1.06-2.32-.9.26.15-.23-.04.04.12l.33.12c.37.2.5.36.34.3-.64-.33 1.93.7 1.37.44l.2.14c-.23-.1-.86-.4-1.07-.57-.02.05-.34-.1-.6-.22l-.1-.05c-.26-.12-.63-.33-.48-.18 1.55.8-1.25-.14.24.68-.58-.42.26.03.93.37.04.06.3.26.78.54.4.2.26.1.35.1.2.15.64.4.56.42.34.12.5.3.9.47.35.15-.02-.03.24.06.52.25 1.23.62 1.65.83.12.13.57.44.2.34-.8-.4.34.03-.5-.35.32.27-.72-.33-.9-.33.23.17.76.43 1.2.63l-.08-.05c.4.18 1.2.54 1.6.78-.12 0 .05.1-.24-.02l.54.25c.07 0 .15.03 0-.05.27.1.52.22.7.34.04.06 2.98 1.13 2.9 1.1.4.16.46.26.86.38.02 0-.22-.1-.57-.23l-1.26-.48c-.9-.36-1.73-.7-1.47-.58.3.22 4.58 1.73 4.8 1.9.3.12.65.25.6.18.5.2-.18.02.16.2 0 0-.02-.04.1 0l.32.2c.8.23 1.92.75 2.78.98-.26-.05-.56-.08-1.1-.24l-.1-.06c-.06 0-.5-.16-.5-.12.48.22.92.37 1.46.54l.27.14V249c.16.08.14.08.07.08h-.04c.28.22 2.02.6 2.93 1 .28.07.03-.02.38.07.94.37 1.6.6 2.6.94.33.04.36.03 0-.15l.74.25c-.73-.07 1.37.58.57.48.22.1.68.23 1.12.33.05 0 .13-.05.67.1.73.25.54.2 1.16.4.14.1-.1.04-.08.1.98.2.8.33 1.73.54.58.13 1.7.4 1.76.32.77.2.75.25.66.3m139.12-57.7l.2-.3c-.63 1.02-1.34 2.1-2.04 3.13.85-1.1 1.76-2.3 2.53-3.48.8-1.18 1.34-2.42 1.62-3.48.38-.04 1.85-2.28 1.8-2.37.2-.52.4-1.04.63-1.57l-.47 1.08.48-1.08c.7-1.65 1.56-3.3 2.34-5.06.82-1.73 1.72-3.5 2.5-5.35.96-2.03 3.12-7.7 3.85-9.87l.33-.94-.4 1.03.95-3.78c-.1.2-.16.22-.37.7l.2-.6c.06-.57.38-1.84.48-2.45.04.15.17-.32.3-.73l-.1.15c.45-1.56.87-3.4 1.16-4.82.04-.2.1-.34.14-.43l.24-1.37c.06.13.32-1.1.24-.45.12-1.04.38-2.06.42-3.06.62-3.5 1.03-7.26 1.22-10.92l-.04.1c.04-1.3-.06-2.43.12-3.98 0-1.1-.1-2.7-.25-3.14.03-1.27-.06-1.8-.07-3.04-.1.32-.08-1.2-.17-.6-.16.83-.05.87-.18 1.58l.04-.02c-.14 1.63-.2 3.27-.35 4.9l-.48 4.94c-.2 2.2-.5 4.6-.84 6.86-.37 2.45-.73 5.1-1.15 7.2-.07.5-.22.84-.35 1.26-.32 1.93-1.06 4.3-1.55 6.47l.03-.1c-.26 1.15-.66 1.94-.97 3.05.03 0-.02.17-.03.26-.1.08-.5 1.72-1 3.36s-1 3.3-1.1 3.48l-.12.35c-.4 1.13-.98 2.23-1.48 3.3-.52 1.07-.98 2.12-1.4 3.07-.13.43-.3.9-.4 1.3-.2.3-.13.4-.33.8-.7.9-.9 1.55-.56 1.07-.36.85-.76 1.7-1.14 2.4l-.47 1.06c-.13.3-.25.44-.38.56-.34.76-.3.5-.7 1.28-.1.07-.32.57-.54 1.1-.22.5-.45 1-.52 1.1l.06-.13c-.52.88-1 1.38-1.5 2.23-.7 1.2-1.45 2.4-2.2 3.6-.77 1.18-1.45 2.4-2.2 3.4.05.08.3-.46.4-.42-.86 1.24-1.8 2.42-2.7 3.65-.16.2-.4.46-.5.54-.3.35-.13.24-.35.52h-.1c-.26.44-.54.53-.8.94 0 .04-.1.18-.2.32-.08-.05-.32.43-.37.36-.06.1-.1.15-.2.24-.1.2-1 1.78-1.1 2l-.08.05c-.17.22-.2.35-.08.24l-.22.26.02-.04-.22.25c-.05.05-.13.08-.1-.02-.1.17-.22.34-.35.48.38-.37.87-.83 1.3-1.2-.13.2-.43.48-.58.68-.24.2-.67.64-1 .98-.07.08-.04.2-.22.36-.13.04-.17.2-.34.33.12-.2.27-.36.42-.54-.1 0-.4.4-.53.54-.04.08-.34.4-.5.63.02-.14-.18.15-.32.25-.13.14-.18.25-.1.2 0 .1.5-.54.4-.28-.07.03-.3.32-.42.48.05.03.13-.08.08.05-.15.16-.26.38-.38.44l.13-.14c-.2.22.76-1.4.54-1.1.1-.04-.83 1.45-.7 1.3.12-.12-.02.15.1.02l.1-.2c.16-.17.3-.2.26-.1-.27.3.5-1.13.32-.82l.1-.1c-.06.14-.3.47-.44.56.05.03-.07.2-.17.33l-.04.04c-.1.14-.27.33-.15.28.65-.8-.08.82.58.07-.35.26 0-.17.28-.52.06 0 .22-.13.44-.35.17-.22.08-.15.1-.2.1-.1.3-.32.32-.26.1-.2.25-.23.4-.44.1-.2-.04 0 .04-.15l.7-.8c.1-.06.38-.25.3-.02-.34.4.02-.22-.3.2.23-.1-.28.38-.28.5.15-.1.37-.35.54-.58l-.04.03c.15-.2.45-.6.67-.78-.02.07.08 0-.03.15l.23-.27c.02-.04.04-.08-.03 0 .08-.16.2-.27.3-.36.05-.02.97-1.6.96-1.54.15-.2.23-.2.35-.43 0-.04-1.34 2-1.15 1.73.17-.14 1.55-2.4 1.7-2.48.12-.15.25-.33.2-.32.2-.24 0 .12.16-.03 0 0-.03 0 0-.06l.2-.14c.22-.43.74-.94.95-1.42-.05.16-.07.35-.24.64l-.04.03c-.02.05-.17.27-.13.3.2-.24.37-.46.52-.76.05-.03.1-.08.13-.12.07-.07.07-.06.06-.02v.02c.2-.08.63-1.05 1-1.5.1-.14 0 0 .1-.2.37-.45.63-.76 1-1.25.07-.2.06-.22-.12-.05l.28-.37c-.12.43.6-.63.46-.17.1-.1.28-.3.4-.54-.03-.06-.05-.12.12-.4l.45-.57c.1-.05.03.08.07.1.26-.54.36-.4.64-.86.17-.3.53-.87.47-.93.26-.4.3-.35.34-.28m15.9-96.8l-.07-.36c.27 1.18.56 2.43.77 3.67-.13-1.37-.37-2.85-.65-4.24-.16-.7-.33-1.37-.54-1.98-.22-.6-.48-1.16-.77-1.63.24-.3-.33-2.92-.42-2.95-.2-.52-.4-1.04-.63-1.57.15.37.3.73.42 1.1-.12-.37-.27-.73-.42-1.1-.68-1.66-1.26-3.43-1.9-5.24-.68-1.8-1.27-3.68-2-5.56-.4-1.03-1.17-2.96-2-4.87l-2.2-4.84-.45-.9.48 1c-.74-1.2-1.4-2.3-2.04-3.32.07.2.04.26.23.75l-.27-.57c-.4-.43-.98-1.6-1.36-2.1.13.1-.1-.34-.32-.7l.05.16c-.82-1.4-1.8-3.02-2.58-4.24-.12-.16-.18-.3-.2-.4l-.8-1.13c.12.04-.58-1-.17-.5-.67-.8-1.16-1.73-1.84-2.47-1.05-1.43-2.12-2.92-3.25-4.38-1.18-1.42-2.35-2.86-3.56-4.23l.02.1c-.88-.94-1.76-1.68-2.72-2.9-.8-.78-1.94-1.87-2.38-2.06-.9-.9-1.3-1.2-2.2-2.1.15.3-.92-.8-.54-.3.46.7.58.65.98 1.24v-.03c1.06 1.27 2.18 2.46 3.2 3.75l3.14 3.83c1.4 1.7 2.92 3.58 4.24 5.47.73 1 1.5 2.02 2.25 3.02.7 1.02 1.4 2 2 2.9.3.4.44.75.64 1.13 1.06 1.64 2.3 3.8 3.44 5.7 0-.05-.03-.08-.04-.1.56 1.02.9 1.84 1.45 2.84 0-.02.1.14.15.2.06.2 3.22 5.94 3.33 6.33l.16.34c.88 2.27 1.72 4.63 2.42 6.57l.64 1.2c.08.35.2.38.35.8.16 1.14.5 1.72.37 1.15.35.85.6 1.75.86 2.52l.42 1.07c.12.32.14.5.13.67.3.8.16.57.4 1.4-.02.24.73 2.08.78 2.33l-.05-.13c.26.97.27 1.67.53 2.62.34 1.32.62 2.73.95 4.1l.48 2.03.36 1.95c.1 0-.12-.55 0-.6.25 1.48.42 2.98.67 4.48v.74c.03.48.08.27.12.62l-.08.06c.14.5 0 .76.1 1.24.05.02.07.2.1.37-.1 0 .07.5 0 .5 0 .1.03.18.03.3.05.2.57 2 .6 2.2v.1c.02.28.1.4.1.23l.02.34v-.04l.02.34c0 .06-.04.14-.1.04.06.2.1.42.1.6 0-.53.02-1.2.06-1.77.05.23.04.65.08.9-.03.3-.03.92-.03 1.4.02.1.13.16.1.4-.06.13.03.27 0 .47-.06-.22-.06-.44-.08-.67-.08.05 0 .56 0 .75.02.08.04.52.1.8-.1-.1-.04.23-.07.4 0 .2.05.3.07.23.1.06-.02-.75.1-.5-.04.08 0 .45.03.65.05 0 .02-.14.08-.02 0 .23.1.46.05.58-.02-.03-.02-.12-.02-.18.03.28-.44-1.53-.38-1.16.04-.1.43 1.6.4 1.42.02-.18.1.12.1-.07l-.07-.18c0-.25.07-.36.1-.27.04.4-.4-1.16-.33-.8V118c.05.15.1.54.08.7.04 0 .08.2.1.37v.06c.05.17.06.4.1.3-.1-1.02.53.64.47-.35-.06.42-.12-.14-.17-.57.03-.04.06-.23.06-.55-.03-.27-.05-.16-.08-.2 0-.16 0-.45.06-.4-.1-.22 0-.36-.04-.6-.05-.23-.03 0-.07-.15l-.07-1.07c.04-.1.1-.43.2-.2.03.5-.15-.2-.08.33.1-.23.07.47.17.56.03-.18 0-.52-.04-.8v.06c-.04-.25-.1-.76-.07-1.04.04.06.06-.06.1.13l-.03-.35c-.02-.05-.04-.1-.04 0-.04-.15-.04-.32-.03-.44.06-.05-.42-1.83-.4-1.77-.02-.24.03-.3-.04-.55-.05-.02.46 2.37.4 2.04.02-.23-.6-2.8-.54-2.97-.03-.2-.07-.4-.1-.36-.03-.3.1.08.1-.14 0 0-.02.02-.03-.05l.02-.23c-.13-.47-.14-1.2-.3-1.7.07.15.17.3.26.63v.06c0 .04.07.3.1.3 0-.32-.05-.6-.14-.9v-.2.02c0-.1 0-.1.04-.06v.02c.1-.22-.3-1.2-.33-1.78-.05-.16-.02 0-.08-.2-.07-.6-.1-1-.2-1.6-.08-.2-.1-.2-.1.04l-.08-.46c.22.4-.02-.87.2-.44 0-.14-.03-.42-.1-.67-.04 0-.1-.03-.16-.35-.04-.46-.04-.35-.08-.73.03-.1.08.04.1 0-.18-.54 0-.5-.13-1.03-.1-.34-.25-1-.34-1-.1-.45-.03-.47.05-.44M188.48 14.3l-.33-.2c1.08.56 2.18 1.23 3.27 1.86-2.24-1.6-5.05-3.28-7.2-3.7-.07-.38-2.44-1.6-2.52-1.56l-1.6-.57 1.1.4-1.1-.4c-1.68-.6-3.43-1.24-5.2-2l-5.52-2.1c-1.06-.36-3-1.05-5-1.66-2-.57-4-1.2-5.1-1.5l-.98-.24 1.07.3-3.83-.65c.2.1.22.15.7.32l-.6-.17c-.57 0-1.86-.24-2.47-.3.14-.05-.33-.15-.75-.24l.16.07c-.8-.17-1.66-.32-2.5-.47-.85-.14-1.68-.23-2.4-.34-.2-.03-.34-.08-.43-.1L145.87.9c.12-.08-1.13-.25-.47-.2-1.04-.07-2.1-.2-3.1-.2-.87-.1-1.76-.17-2.67-.26-.9-.08-1.83-.1-2.75-.14L134.1 0c-.9 0-1.83.02-2.75.04l.1.03c-1.3.06-2.42.14-3.97.16-1.1.16-2.7.27-3.12.48-1.28.07-1.78.18-3.03.27.33.08-1.2.16-.6.2.85.12.9 0 1.6.1l-.03-.04c3.3.05 6.56-.03 9.88.15h1.7l1.72.1 3.5.22c2.45.24 5.13.38 7.25.65.5.05.85.18 1.28.3 1.95.18 4.38.73 6.56 1.07l-.12-.02c1.16.2 2 .52 3.1.75 0-.02.18 0 .27.02.08.1 1.75.35 3.4.76 1.68.38 3.38.76 3.57.85.12.02.24.05.36.1 2.3.78 4.6 1.72 6.55 2.45l1.32.28c.33.2.43.1.84.28.96.6 1.6.8 1.1.47.86.32 1.7.7 2.48 1l1.08.37c.3.1.46.2.6.32.77.3.52.27 1.3.65.16.16 2.06.77 2.27.9l-.13-.05c.92.43 1.45.87 2.33 1.33l3.74 1.94 3.56 1.97c.07-.08-.5-.27-.47-.4 1.32.74 2.52 1.67 3.82 2.45.22.16.48.38.57.47.4.28.27.1.56.3v.1c.48.22.6.5 1 .73.05-.02.2.08.35.18-.04.07.44.28.38.34.1.05.16.1.26.17.18.1 1.83.88 2.04.98l.07.07c.25.14.38.16.26.05l.27.2-.04-.02.27.2c.05.05.08.13-.02.1.17.1.36.2.5.33l-1.3-1.2c.2.1.52.37.73.5.2.24.67.64 1.04.95.1.06.2.03.37.2.05.13.2.16.34.3-.2-.1-.37-.23-.56-.37 0 .1.43.37.56.5.08.02.43.3.67.45-.13 0 .17.17.28.3.14.12.26.17.2.1.1-.03-.57-.48-.3-.4.03.08.34.28.5.4.03-.04-.1-.1.05-.08.17.14.4.23.47.35l-.16-.12c.23.18-1.45-.66-1.13-.47-.05-.1 1.5.74 1.35.63-.13-.14.15 0 0-.13l-.18-.07c-.2-.16-.23-.28-.14-.26.33.25-1.15-.44-.83-.26l-.1-.1c.13.06.48.27.57.4.03-.04.2.07.35.16l.05.04c.15.08.34.23.3.12-.85-.6.8.02.02-.58.27.32-.18 0-.54-.25-.02-.05-.15-.2-.4-.4-.2-.16-.14-.07-.2-.08-.1-.12-.33-.3-.27-.32-.22-.08-.26-.24-.48-.37-.2-.1 0 .05-.15-.02-.27-.2-.64-.5-.86-.65-.04-.1-.25-.36-.02-.3.4.3-.23 0 .2.3-.1-.23.4.24.54.23-.1-.14-.4-.34-.63-.5l.03.05c-.2-.13-.64-.4-.83-.6.08 0 0-.1.15 0l-.28-.2c-.04-.02-.1-.04 0 .03-.17-.07-.3-.17-.4-.26 0-.06-1.63-.88-1.57-.87-.2-.14-.23-.22-.46-.32-.04 0 2.1 1.2 1.8 1.03-.15-.15-2.5-1.4-2.58-1.54-.15-.1-.35-.22-.33-.15-.25-.2.12 0-.05-.17 0 0 0 .03-.05 0l-.15-.18c-.44-.2-1.02-.64-1.5-.84.15.05.34.07.64.2l.04.05c.05 0 .3.14.3.1-.25-.2-.48-.32-.8-.45l-.12-.13v.02c-.1-.1-.07-.1-.03-.08h.03c-.1-.2-1.1-.57-1.55-.92l-.2-.08c-.5-.34-.8-.6-1.33-.92-.2-.05-.22-.04-.04.12l-.4-.24c.45.08-.67-.53-.2-.43-.1-.1-.34-.24-.58-.34-.04.03-.1.06-.4-.1-.36-.26-.25-.2-.58-.42-.06-.08.07-.03.08-.07-.54-.22-.4-.33-.88-.6-.3-.14-.9-.46-.96-.4-.4-.23-.38-.27-.3-.3m-97.7-9.1l-.35.1c1.17-.36 2.4-.74 3.6-1.04-1.34.23-2.8.57-4.17.95-.7.2-1.34.42-1.94.68-.6.27-1.12.56-1.57.88-.32-.23-2.9.53-2.9.62-.52.23-1.02.48-1.53.73.35-.15.7-.34 1.05-.5-.35.16-.7.35-1.05.5-1.6.82-3.34 1.5-5.1 2.28-1.74.8-3.6 1.52-5.4 2.38-1 .5-2.88 1.38-4.73 2.34L62 17.64l-.86.5.97-.54-3.17 2.26c.2-.08.26-.06.73-.28l-.56.3c-.4.42-1.52 1.1-2 1.52.08-.14-.32.13-.68.36l.16-.06c-1.34.92-2.9 2-4.04 2.87-.17.12-.3.2-.4.23l-1.07.88c.04-.14-.95.63-.46.18-.76.73-1.66 1.28-2.35 2-1.37 1.16-2.78 2.32-4.15 3.55-1.34 1.28-2.7 2.55-3.97 3.86l.08-.04c-.87.95-1.54 1.87-2.7 2.92-.7.84-1.72 2.06-1.9 2.5-.84.96-1.1 1.4-1.93 2.35.3-.18-.74.96-.27.56.67-.52.6-.63 1.17-1.07l-.04-.02c1.18-1.14 2.3-2.34 3.5-3.45l3.6-3.4c.8-.76 1.66-1.54 2.53-2.32l1.3-1.15 1.34-1.12 2.87-2.46 2.73-2.2c.4-.33.73-.5 1.1-.7 1.56-1.2 3.63-2.58 5.43-3.85l-.1.05c1-.64 1.8-1.02 2.75-1.64-.02-.02.13-.12.2-.18.18-.07 5.7-3.63 6.08-3.77l.3-.18c1.1-.53 2.24-1.02 3.32-1.5.55-.25 1.08-.5 1.6-.72l1.48-.65c.38-.25.82-.5 1.14-.73.35-.1.37-.22.78-.4 1.13-.23 1.68-.6 1.12-.44.82-.42 1.7-.72 2.46-1.05l1.03-.47c.3-.15.48-.18.66-.18.76-.35.55-.2 1.37-.5.22 0 2-.88 2.25-.94l-.13.07c.96-.32 1.65-.38 2.58-.7 1.3-.45 2.7-.8 4.03-1.25l2-.6c.65-.2 1.3-.35 1.9-.5 0-.1-.52.16-.58.04 1.45-.35 2.95-.62 4.42-.98.27-.03.6-.05.73-.05.48-.06.27-.1.62-.16l.07.07c.48-.17.75-.06 1.2-.2.03-.03.2-.07.37-.1.03.08.52-.12.52-.04l.3-.06c.18-.06 1.94-.7 2.14-.75h.1c.27-.05.38-.14.2-.13l.35-.05-.05.02.34-.05c.05-.02.13 0 .04.07.2-.06.4-.12.6-.13-.55.03-1.22.06-1.8.06.23-.07.65-.1.9-.14.3.02.92-.03 1.4-.07.1-.03.16-.14.4-.14.13.05.26-.04.47-.03-.2.08-.43.1-.66.13.05.07.56-.04.74-.04.1-.04.53-.1.8-.15-.1.1.23 0 .4.02.2-.03.3-.08.22-.1.05-.1-.74.08-.5-.05.08.03.44-.05.63-.08 0-.05-.13 0 0-.08.2-.03.43-.13.56-.1l-.2.04c.28-.05-1.5.55-1.13.46-.1-.03 1.57-.54 1.4-.5-.2 0 .1-.1-.08-.1l-.2.1c-.25 0-.37-.05-.28-.1.4-.06-1.13.5-.78.4h-.15c.14-.05.53-.14.7-.12 0-.04.18-.1.35-.14h.06c.18-.05.42-.08.3-.12-1 .17.6-.57-.38-.43.42.02-.13.1-.56.2-.04-.03-.24-.05-.56-.03-.27.05-.15.06-.2.1-.15 0-.44.03-.4-.03-.2.1-.35 0-.6.08-.22.06.02.02-.13.08l-1.07.14c-.1-.03-.44-.07-.22-.18.5-.07-.18.15.35.05-.25-.06.46-.1.54-.2-.18-.02-.52.04-.8.1h.06c-.25.06-.74.16-1.03.15.06-.05-.06-.06.12-.1l-.35.05c-.04 0-.08.03.02.03-.17.05-.33.06-.46.06-.05-.06-1.8.54-1.74.5-.24.05-.32 0-.55.1-.02.04 2.33-.64 2-.56-.2 0-2.74.8-2.9.75-.2.03-.4.1-.36.12-.32.04.07-.1-.16-.1 0 0 .02.02-.05.04h-.23c-.47.15-1.2.22-1.67.4.13-.07.28-.18.6-.3l.06.02c.04-.03.3-.1.3-.14-.33.04-.6.1-.9.2h-.2l.02.03c-.1 0-.1 0-.06-.03l.02-.02c-.22-.07-1.18.38-1.75.46-.17.06-.02.03-.22.1-.57.1-.98.16-1.58.3-.17.1-.18.1.06.1l-.45.1c.38-.24-.86.1-.45-.16-.14 0-.4.06-.66.15-.02.04-.05.1-.36.2-.45.05-.34.05-.7.1-.1 0 0-.07 0-.1-.55.23-.52.05-1.05.22-.33.1-.98.3-.97.4-.44.12-.46.07-.44 0M10.6 76.52l-.16.34c.5-1.1 1-2.28 1.6-3.4-1.42 2.36-2.95 5.26-3.15 7.46-.4.1-1.5 2.52-1.43 2.6l-.43 1.64c.1-.37.2-.74.32-1.12l-.32 1.12c-1 3.45-2.2 7.13-3.36 11-.27 1.07-.84 3.07-1.3 5.1-.45 2.03-.9 4.07-1.1 5.2l-.2.98c.1-.55.1-.55.23-1.1-.12 1.4-.3 2.66-.38 3.88.08-.2.13-.24.25-.73l-.1.6c.05.6-.12 1.9-.14 2.5-.06-.13-.13.35-.2.77l.07-.16c-.24 1.6-.3 3.5-.47 4.94 0 .2-.05.35-.1.44 0 .47 0 .93-.02 1.4-.07-.12-.13 1.14-.15.48.05 1.04-.08 2.1-.02 3.1C0 125.3-.02 127.15 0 129c.06 1.84.17 3.7.33 5.52l.03-.1c.12 1.3.37 2.4.43 3.96.2 1.1.4 2.66.65 3.08.16 1.26.3 1.76.5 3 .07-.34.28 1.18.28.56.03-.84-.1-.87-.07-1.58l-.03.03c-.24-3.28-.42-6.55-.5-9.87-.17-2.2-.17-4.6-.12-6.9.02-1.25-.02-2.54.03-3.8l.1-3.5c-.02-.5.1-.87.2-1.3l.25-3.22c.1-1.14.28-2.3.38-3.4v.1c.12-1.16.32-2.02.5-3.15-.02 0 0-.17 0-.26.1-.1.28-1.76.52-3.46.27-1.68.53-3.4.6-3.6l.07-.36c.62-2.34 1.42-4.72 2-6.7.05-.46.14-.96.17-1.35.16-.34.07-.44.2-.87.6-1 .7-1.65.43-1.12.24-.9.55-1.76.8-2.55.08-.37.18-.73.3-1.1.08-.3.18-.47.3-.6.24-.8.22-.55.54-1.37.15-.16.58-2.12.72-2.33l-.04.14c.4-.95.8-1.5 1.17-2.42.52-1.27 1.12-2.58 1.68-3.87.55-1.3 1.15-2.54 1.72-3.68-.07-.06-.22.52-.35.5.67-1.36 1.43-2.67 2.17-4 .15-.22.34-.5.43-.6.25-.4.1-.26.27-.57h.1c.18-.5.42-.63.63-1.07-.02-.04.06-.2.15-.34.1.03.26-.47.32-.4.05-.1.08-.17.16-.27l.85-2.1.06-.1c.13-.23.14-.37.04-.23l.18-.3-.02.04.18-.3c.04-.04.1-.08.1.02.07-.18.17-.37.3-.53-.32.4-.72.9-1.1 1.4.08-.2.33-.55.45-.77.2-.23.57-.72.85-1.1.05-.1 0-.2.17-.4.1-.06.13-.22.28-.37-.1.22-.22.4-.35.6.1 0 .35-.46.46-.6.02-.1.27-.45.4-.7 0 .15.16-.16.3-.28.1-.16.13-.28.07-.23-.04-.1-.44.6-.38.34.06-.03.24-.36.35-.53-.04-.02-.1.1-.07-.03.12-.2.2-.42.3-.5 0 .04-.06.12-.1.17.16-.24-.56 1.5-.4 1.16-.08.06.64-1.54.54-1.38-.1.14 0-.15-.1 0l-.07.2c-.15.2-.27.24-.25.15.22-.35-.36 1.17-.2.85l-.1.1c.05-.14.24-.5.36-.6-.04-.03.06-.2.13-.36l.03-.06c.07-.16.2-.36.1-.3-.53.88-.03-.82-.58 0 .3-.3 0 .2-.2.56-.06.02-.2.16-.4.4-.13.25-.05.17-.05.23-.1.1-.27.35-.3.3-.05.2-.2.26-.32.48-.1.22.03.02-.03.17l-.6.9c-.1.06-.33.28-.28.05.28-.43 0 .23.27-.23-.2.12.23-.43.2-.56-.13.12-.3.4-.45.66l.03-.04c-.12.23-.36.67-.55.88 0-.07-.1.02 0-.15l-.18.3c0 .03-.02.08.03 0-.05.15-.15.3-.23.4-.06 0-.77 1.7-.77 1.63-.12.2-.2.23-.3.47.03.04 1.08-2.16.93-1.86-.15.16-1.24 2.57-1.38 2.67-.1.18-.2.38-.13.36-.16.27-.03-.12-.17.06 0 0 .03 0 0 .05l-.15.17c-.17.46-.58 1.06-.74 1.55 0-.16.02-.35.14-.66l.05-.04c0-.05.1-.3.07-.3-.17.25-.3.5-.4.8-.05.05-.1.1-.12.15-.06.1-.06.07-.06.03v-.02c-.2.1-.5 1.12-.83 1.6-.06.16 0 .02-.06.22-.3.5-.5.85-.8 1.4-.03.2-.02.22.13.03l-.2.42c.04-.45-.5.7-.44.23-.1.1-.23.36-.32.6.02.04.06.1-.08.4-.24.38-.18.27-.4.6-.07.07-.03-.06-.07-.06-.2.54-.3.4-.5.9-.14.33-.4.96-.34 1-.2.43-.25.4-.3.33m-2.27 98.1l.12.34c-.43-1.13-.88-2.33-1.27-3.53.7 2.65 1.58 5.8 3.03 7.5-.2.34.73 2.84.83 2.86.26.5.55.97.84 1.46-.2-.33-.38-.67-.57-1 .2.33.38.67.57 1 .9 1.55 1.7 3.23 2.62 4.93.9 1.67 1.75 3.47 2.74 5.2.57.98 1.57 2.8 2.67 4.56l2.87 4.5.56.8-.6-.92c.88 1.1 1.7 2.1 2.46 3-.1-.2-.1-.25-.34-.7l.34.52c.44.38 1.2 1.44 1.65 1.88-.14-.06.16.33.4.67l-.06-.15c1 1.27 2.17 2.75 3.13 3.83.13.16.2.3.26.37l.94 1.02c-.14-.02.7.92.22.46.77.7 1.38 1.57 2.17 2.2 1.23 1.28 2.48 2.6 3.82 3.88 1.36 1.26 2.7 2.53 4.1 3.7l-.03-.07c1 .8 1.96 1.4 3.1 2.5.88.65 2.17 1.57 2.63 1.7 1 .8 1.46 1.03 2.47 1.78-.2-.27 1.02.68.58.24-.56-.63-.67-.57-1.15-1.1v.04c-1.22-1.1-2.5-2.13-3.7-3.26-1.2-1.13-2.4-2.24-3.62-3.36-.83-.74-1.66-1.54-2.5-2.35l-1.25-1.2c-.4-.44-.8-.85-1.2-1.27l-2.66-2.7-2.38-2.57c-.36-.36-.54-.7-.8-1.05-1.3-1.45-2.8-3.43-4.2-5.14l.06.1c-.7-.94-1.14-1.7-1.83-2.63-.02.02-.12-.12-.2-.18-.07-.18-4-5.42-4.17-5.8l-.2-.3c-.6-1.06-1.18-2.15-1.74-3.2l-1.58-2.97c-.27-.37-.56-.8-.8-1.1-.13-.34-.25-.35-.45-.74-.3-1.1-.72-1.64-.53-1.1-.48-.77-.83-1.64-1.2-2.36l-.57-1c-.16-.3-.2-.47-.23-.64-.4-.74-.23-.54-.6-1.34-.02-.22-1-1.95-1.08-2.2l.07.14c-.4-.94-.5-1.62-.9-2.53-.54-1.25-1-2.6-1.52-3.92-.52-1.3-1.02-2.6-1.38-3.82-.1 0 .2.52.1.6-.47-1.44-.84-2.9-1.3-4.35-.05-.26-.1-.6-.1-.72-.1-.48-.12-.27-.2-.6l.06-.08c-.2-.47-.12-.75-.28-1.2-.04-.02-.1-.2-.14-.36.08-.03-.15-.5-.07-.5-.03-.1-.06-.18-.08-.3-.08-.2-.85-1.9-.9-2.1v-.1c-.08-.27-.17-.37-.15-.2l-.07-.34v.04l-.06-.33c0-.06.02-.14.08-.05-.08-.18-.14-.4-.17-.58.07.53.14 1.2.2 1.77-.1-.2-.15-.63-.2-.87-.02-.3-.12-.92-.2-1.4-.02-.1-.13-.14-.14-.4.03-.12-.08-.25-.07-.45.1.2.12.43.17.66.07-.06-.08-.56-.1-.74-.04-.08-.1-.52-.2-.8.1.1 0-.22 0-.4-.03-.18-.1-.28-.1-.2-.1-.05.12.74-.03.5.03-.08-.07-.43-.12-.63-.05.02 0 .15-.08.04-.04-.22-.15-.44-.13-.57l.05.2c-.07-.3.64 1.45.53 1.1-.02.1-.64-1.55-.6-1.36.02.18-.1-.1-.1.08l.12.2c.04.23-.02.35-.07.27-.1-.4.58 1.1.45.75v.15c-.05-.15-.17-.53-.16-.7-.04 0-.1-.18-.16-.34v-.05c-.06-.16-.1-.4-.14-.28.24 1-.6-.56-.4.4 0-.42.13.13.24.55-.02.05-.03.25.02.56.07.26.07.15.1.2.02.14.07.43 0 .4.12.2.05.34.13.6.08.2.02-.03.1.1.05.34.15.8.2 1.07-.02.1-.03.44-.16.24-.12-.5.16.15.02-.37-.06.25-.14-.45-.25-.52 0 .18.07.52.15.8v-.06c.07.24.2.73.22 1-.06-.04-.06.08-.1-.1l.06.34c.02.04.05.08.03-.02.07.16.1.32.1.45-.04.06.67 1.75.63 1.7.07.25.03.32.13.55.03 0-.8-2.28-.7-1.96.02.2.98 2.67.95 2.85.05.17.12.4.15.34.07.3-.1-.08-.08.14 0 0 .02-.02.03.05v.2c.2.46.32 1.18.55 1.65-.1-.13-.2-.27-.34-.58v-.06c-.02-.03-.1-.3-.15-.27.07.3.15.57.28.87v.2l.03-.02c.02.1 0 .1-.02.06l-.02-.02c-.05.23.47 1.15.6 1.7.06.17 0 .02.1.2.14.58.23.98.4 1.57.1.16.14.17.1-.08l.14.45c-.27-.35.15.86-.14.47 0 .14.1.4.2.64.04 0 .1.03.2.34l.2.7c-.02.1-.1-.02-.12 0 .27.53.1.52.3 1.03.13.3.38.94.46.93.16.43.1.45.03.44" />
            <text fill="#5F6C7D" font-family="Lato-Regular, Lato" font-size="18">
                <tspan x="64" y="109">Environment</tspan>
                <tspan x="64" y="131">template</tspan>
            </text>
        </g>
    </defs>
</svg>