<?xml version="1.0" encoding="UTF-8"?>
<svg width="1600px" height="168px" viewBox="0 0 1600 168" version="1.1" xmlns="http://www.w3.org/2000/svg" xmlns:xlink="http://www.w3.org/1999/xlink">
    <!-- Generator: Sketch 47 (45396) - http://www.bohemiancoding.com/sketch -->
    <title>Artboard</title>
    <desc>Created with Sketch.</desc>
    <defs>
        <linearGradient x1="3.65%" y1="60.1859658%" x2="100.42%" y2="61.6026231%" id="linearGradient-1">
            <stop stop-color="#5F2385" offset="4.29%"></stop>
            <stop stop-color="#9452BA" offset="96.93%"></stop>
        </linearGradient>
        <linearGradient x1="47.74%" y1="119.630049%" x2="22.45%" y2="12.1621811%" id="linearGradient-2">
            <stop stop-color="#5F2385" offset="4.29%"></stop>
            <stop stop-color="#FFFFFF" offset="100%"></stop>
        </linearGradient>
        <linearGradient x1="51.12%" y1="117.543389%" x2="54.2%" y2="6.3007443%" id="linearGradient-3">
            <stop stop-color="#5F2385" offset="4.29%"></stop>
            <stop stop-color="#FFFFFF" offset="100%"></stop>
        </linearGradient>
        <linearGradient x1="45.94%" y1="38.6689632%" x2="39.72%" y2="64.7777496%" id="linearGradient-4">
            <stop stop-color="#4F1374" offset="23.31%"></stop>
            <stop stop-color="#5F2385" offset="84.05%"></stop>
        </linearGradient>
        <linearGradient x1="8.19%" y1="36.2015251%" x2="72.77%" y2="62.1019208%" id="linearGradient-5">
            <stop stop-color="#4F1374" offset="23.31%"></stop>
            <stop stop-color="#5F2385" offset="84.05%"></stop>
        </linearGradient>
    </defs>
    <g id="Page-2" stroke="none" stroke-width="1" fill="none" fill-rule="evenodd">
        <g id="Artboard">
            <path d="M207.963326,89.5475538 C206.614205,89.3679061 204.895324,89.1882583 202.826671,88.9986301 C200.748025,88.8189824 198.999163,88.7291585 197.550107,88.7291585 C191.953751,88.7291585 187.706517,89.7771037 184.778423,91.8630137 C181.840337,93.9589041 180.381287,97.1227006 180.381287,101.394325 C180.381287,104.118982 180.880961,106.254795 181.88031,107.7818 C182.859673,109.338748 184.098866,110.516438 185.577903,111.334834 C187.076927,112.163209 188.715859,112.662231 190.524682,112.831898 C192.32351,113.031507 194.022404,113.131311 195.661337,113.131311 C197.739983,113.131311 199.878591,113.001566 202.087153,112.772016 C204.285721,112.552446 206.264432,112.213112 207.983313,111.754012 L207.983313,89.5475538 L207.963326,89.5475538 Z M207.963326,76.3334638 C207.963326,70.983953 206.614205,67.251272 203.905968,65.1553816 C201.207725,63.0794521 197.280283,62.0414873 192.143627,62.0414873 C188.97569,62.0414873 186.02761,62.290998 183.279399,62.7900196 C180.531189,63.2890411 177.842939,63.9477495 175.234638,64.7661448 C173.515757,61.7720157 172.66631,58.1790607 172.66631,54.0072407 C175.734313,53.0091977 179.122107,52.2307241 182.819699,51.6917808 C186.517291,51.1428571 190.074974,50.8733855 193.492749,50.8733855 C202.506879,50.8733855 209.362415,52.9393346 214.049363,57.0612524 C218.746305,61.2031311 221.094775,67.8001957 221.094775,76.8823875 L221.094775,120.596673 C217.936832,121.315264 214.099331,122.063796 209.602259,122.83229 C205.0852,123.600783 200.488194,123.99002 195.811239,123.99002 C191.384122,123.99002 187.396718,123.590802 183.839035,122.762427 C180.281352,121.944031 177.24333,120.636595 174.774937,118.820157 C172.296551,117.003718 170.377801,114.688258 169.028679,111.873777 C167.679557,109.059295 167,105.655969 167,101.653816 C167,97.7614481 167.799479,94.32818 169.368458,91.3739726 C170.937436,88.4297456 173.06605,85.9845401 175.78428,84.0183953 C178.482523,82.0722114 181.600493,80.6250489 185.118202,79.6669276 C188.615925,78.6988258 192.313517,78.2197652 196.210979,78.2197652 C199.079111,78.2197652 201.447569,78.2896282 203.306359,78.4193738 C205.145161,78.5690802 206.704146,78.7187867 207.963326,78.9183953 L207.963326,76.3234834 L207.963326,76.3334638 Z M254.313145,86.144227 L279.766571,52.5101761 C280.935809,52.3105675 282.105048,52.1908023 283.28428,52.1109589 C284.443525,52.0111546 285.652738,51.9612524 286.921911,51.9612524 C288.271033,51.9612524 289.560193,52.0011742 290.779399,52.1009785 C291.978619,52.2007828 293.227805,52.3205479 294.496979,52.5001957 L269.043553,85.1861057 L298.284512,122.37319 C297.025332,122.552838 295.806126,122.692564 294.636888,122.772407 C293.467649,122.872211 292.238449,122.922114 290.989263,122.922114 C289.730083,122.922114 288.460909,122.882192 287.191736,122.792368 C285.932556,122.692564 284.673375,122.562818 283.414195,122.393151 L254.313145,86.1641879 L254.313145,86.144227 Z M240.682021,22.5489237 C241.68137,22.3692759 242.780654,22.2295499 243.999861,22.1497065 C245.219067,22.0499022 246.318351,22 247.3177,22 C248.317049,22 249.416334,22.0499022 250.695501,22.139726 C251.954681,22.2395303 253.093939,22.3692759 254.073301,22.5389432 L254.073301,122.363209 C253.073952,122.542857 251.954681,122.682583 250.695501,122.762427 C249.426327,122.862231 248.297062,122.912133 247.3177,122.912133 C246.318351,122.912133 245.219067,122.872211 243.999861,122.782387 C242.780654,122.682583 241.68137,122.552838 240.682021,122.38317 L240.682021,22.5389432 L240.682021,22.5489237 Z M352.379288,80.6849315 C352.379288,78.1499022 352.039509,75.7246575 351.359952,73.3992172 C350.700381,71.1037182 349.701032,69.0776908 348.401878,67.3510763 C347.102724,65.6244618 345.423817,64.237182 343.405132,63.1992172 C341.366459,62.151272 338.958027,61.6322896 336.159849,61.6322896 C330.663428,61.6322896 326.436181,63.3289628 323.508088,66.672407 C320.579994,70.0358121 318.811146,74.7166341 318.171563,80.7048924 L352.379288,80.7048924 L352.379288,80.6849315 Z M318.031654,90.7651663 C318.211537,98.4001957 320.170261,103.979256 323.927814,107.53229 C327.655387,111.065362 333.181789,112.821918 340.477038,112.821918 C346.872873,112.821918 352.968904,111.70411 358.735149,109.428571 C359.434694,110.78591 360.034303,112.452642 360.48401,114.398826 C360.933718,116.35499 361.203542,118.291194 361.28349,120.187476 C358.315423,121.45499 355.04755,122.413112 351.489867,123.041879 C347.92219,123.680626 343.994748,124 339.657572,124 C333.361671,124 327.945198,123.101761 323.438133,121.345205 C318.941062,119.578669 315.213489,117.083562 312.285396,113.859883 C309.367296,110.636204 307.228688,106.823679 305.869573,102.412329 C304.520452,98.0209393 303.840894,93.1804305 303.840894,87.9107632 C303.840894,82.7409002 304.500465,77.9003914 305.809612,73.4091977 C307.108766,68.9180039 309.107465,65.025636 311.825695,61.7121331 C314.523938,58.3986301 317.921725,55.7637965 322.019057,53.8076321 C326.136376,51.8614481 330.973227,50.8833659 336.569583,50.8833659 C341.346472,50.8833659 345.533745,51.7017613 349.141396,53.3385519 C352.739054,54.9553816 355.767082,57.2009785 358.195501,60.065362 C360.633913,62.9197652 362.492702,66.323092 363.741889,70.2753425 C364.991076,74.227593 365.640653,78.5191781 365.640653,83.1500978 C365.640653,84.4176125 365.580692,85.7450098 365.49075,87.1622309 C365.390815,88.5594912 365.310867,89.7571429 365.220926,90.7551859 L318.031654,90.7551859 L318.031654,90.7651663 Z M383.209213,52.5101761 C384.208562,52.3105675 385.167937,52.1908023 386.107325,52.1109589 C387.066701,52.0111546 388.026076,51.9612524 389.025425,51.9612524 C390.024775,51.9612524 390.924189,52.0011742 391.793623,52.1009785 C392.653063,52.2007828 393.572464,52.3205479 394.56182,52.5001957 C394.831645,53.8675147 395.101469,55.6939335 395.381287,58.0193738 C395.651111,60.3148728 395.781026,62.2610568 395.781026,63.8080235 C396.680441,62.2610568 397.829692,60.71409 399.228781,59.1671233 C400.62787,57.6201566 402.226829,56.2428571 404.025658,55.0152642 C405.844473,53.7776908 407.92312,52.7796477 410.261597,52.021135 C412.600074,51.2426614 415.158408,50.8534247 417.956586,50.8534247 C425.901413,50.8534247 431.747606,53.1489237 435.545133,57.7399217 C439.342661,62.3109589 441.241424,69.0976517 441.241424,78.1 L441.241424,122.343249 C440.242075,122.522896 439.102817,122.662622 437.843637,122.742466 C436.584457,122.84227 435.445198,122.892172 434.465836,122.892172 C433.466487,122.892172 432.367203,122.85225 431.147997,122.762427 C429.948778,122.662622 428.829506,122.532877 427.850144,122.363209 L427.850144,81.7827789 C427.850144,75.3354207 426.850795,70.6046967 424.852096,67.5506849 C422.883378,64.5166341 419.725435,62.9896282 415.398252,62.9896282 C412.879892,62.9896282 410.481454,63.448728 408.232918,64.3569472 C405.994376,65.2551859 404.005671,66.672407 402.296783,68.5786693 C400.577903,70.4749511 399.198801,72.9700587 398.169471,75.9941292 C397.130148,79.0381605 396.610486,82.6810176 396.610486,86.9726027 L396.610486,122.363209 C395.611137,122.542857 394.511853,122.682583 393.312634,122.762427 C392.083434,122.862231 390.98415,122.912133 389.984801,122.912133 C388.985451,122.912133 387.86618,122.872211 386.607,122.782387 C385.34782,122.682583 384.208562,122.552838 383.2292,122.38317 L383.2292,52.5201566 L383.209213,52.5101761 Z M505.709445,80.6849315 C505.709445,78.1499022 505.369666,75.7246575 504.710096,73.3992172 C504.010551,71.1037182 503.031189,69.0776908 501.712048,67.3510763 C500.412894,65.6244618 498.743981,64.237182 496.715302,63.1992172 C494.696616,62.151272 492.278191,61.6322896 489.490007,61.6322896 C483.993586,61.6322896 479.776332,63.3289628 476.848238,66.672407 C473.910152,70.0358121 472.13131,74.7166341 471.50172,80.7048924 L505.709445,80.7048924 L505.709445,80.6849315 Z M471.371804,90.7651663 C471.551687,98.4001957 473.510412,103.979256 477.247978,107.53229 C480.985544,111.065362 486.511946,112.821918 493.817189,112.821918 C500.213024,112.821918 506.309055,111.70411 512.065306,109.428571 C512.784838,110.78591 513.36446,112.452642 513.824161,114.398826 C514.273868,116.35499 514.543692,118.291194 514.62364,120.187476 C511.665567,121.45499 508.397695,122.413112 504.830018,123.041879 C501.272334,123.680626 497.334898,124 493.007716,124 C486.691829,124 481.285349,123.101761 476.778284,121.345205 C472.281212,119.578669 468.563633,117.083562 465.63554,113.859883 C462.697453,110.636204 460.558845,106.823679 459.209724,102.412329 C457.860602,98.0209393 457.181045,93.1804305 457.181045,87.9107632 C457.181045,82.7409002 457.820628,77.9003914 459.129776,73.4091977 C460.42893,68.9180039 462.447616,65.025636 465.145859,61.7121331 C467.844102,58.3986301 471.241889,55.7637965 475.359208,53.8076321 C479.45654,51.8614481 484.29339,50.8833659 489.879753,50.8833659 C494.656642,50.8833659 498.853909,51.7017613 502.471553,53.3385519 C506.069211,54.9553816 509.087246,57.2009785 511.515664,60.065362 C513.954076,62.9197652 515.812866,66.323092 517.062053,70.2753425 C518.321233,74.227593 518.960816,78.5191781 518.960816,83.1500978 C518.960816,84.4176125 518.910849,85.7450098 518.820907,87.1622309 L518.54109,90.7551859 L471.371804,90.7551859 L471.371804,90.7651663 Z M564.671051,113.241096 C570.887004,113.241096 575.48401,110.975538 578.462071,106.434442 C581.440132,101.893346 582.919169,95.5857143 582.919169,87.5015656 C582.919169,79.4174168 581.440132,73.1297456 578.462071,68.6385519 C575.48401,64.1473581 570.887004,61.9017613 564.671051,61.9017613 C558.445106,61.9017613 553.878079,64.1473581 550.939993,68.6385519 C548.011899,73.1297456 546.542856,79.4174168 546.542856,87.5015656 C546.542856,95.5857143 548.011899,101.893346 550.939993,106.434442 C553.868086,110.975538 558.435112,113.241096 564.671051,113.241096 L564.671051,113.241096 Z M564.671051,124 C559.274565,124 554.527656,123.07182 550.480292,121.205479 C546.41294,119.349119 543.03514,116.784149 540.326903,113.520548 C537.62866,110.246967 535.629962,106.394521 534.310821,101.943249 C533.011667,97.4919765 532.352096,92.681409 532.352096,87.5015656 C532.352096,82.3317025 533.001673,77.521135 534.310821,73.069863 C535.609975,68.618591 537.62866,64.7661448 540.326903,61.4925636 C543.025146,58.2289628 546.422934,55.6340509 550.470298,53.7277886 C554.527656,51.811546 559.264572,50.8634051 564.661058,50.8634051 C570.077531,50.8634051 574.804453,51.811546 578.851817,53.7178082 C582.919169,55.61409 586.306963,58.209002 589.005206,61.4726027 C591.723436,64.746184 593.732128,68.5986301 595.031282,73.0499022 C596.330436,77.5011742 597,82.3117417 597,87.4816047 C597,92.6714286 596.340429,97.4620352 595.031282,101.923288 C593.732128,106.37456 591.733429,110.227006 589.015199,113.500587 C586.316956,116.764188 582.939156,119.329159 578.881798,121.185519 C574.82444,123.051859 570.087524,123.980039 564.691038,123.980039 L564.671051,124 Z" id="akeneo" fill="#11324D" fill-rule="nonzero"></path>
            <path d="M699.86061,22.5340454 C700.843746,22.3560294 701.960929,22.2225194 703.212193,22.1335113 C704.463457,22.0445033 705.535953,22 706.429713,22 C707.412849,22 708.507689,22.0445033 709.714265,22.1335113 C710.920841,22.2225194 712.01568,22.3560294 712.998816,22.5340454 L712.998816,118.528705 C709.602528,119.507793 705.804105,120.331105 701.603433,120.998665 C697.402761,121.666225 692.710591,122 687.526783,122 C682.700479,122 678.120028,121.399205 673.785292,120.197597 C669.450555,118.995989 665.674476,117.01559 662.45694,114.256342 C659.239404,111.497093 656.692226,107.936826 654.81533,103.575434 C652.938434,99.2140414 652,93.8291375 652,87.4205607 C652,81.9020641 652.826716,76.8731869 654.480172,72.3337784 C656.133628,67.7943698 658.479713,63.9003278 661.518497,60.6515354 C664.557281,57.402743 668.199298,54.8883044 672.444658,53.1081442 C676.690018,51.327984 681.404532,50.4379172 686.58834,50.4379172 C688.912116,50.4379172 691.258201,50.6159306 693.626665,50.9719626 C695.995129,51.3279947 698.07309,51.773028 699.86061,52.3070761 L699.86061,22.5340454 Z M699.86061,63.5220294 C698.07309,62.8099653 696.151534,62.2759252 694.095886,61.9198932 C692.040238,61.5638611 689.805872,61.3858478 687.39272,61.3858478 C683.728304,61.3858478 680.555503,62.0533979 677.874223,63.388518 C675.192943,64.7236382 672.98092,66.548275 671.238088,68.8624833 C669.495256,71.1766916 668.199324,73.9136469 667.350252,77.0734312 C666.50118,80.2332156 666.07665,83.6822243 666.07665,87.4205607 C666.166026,95.8763218 668.176956,101.928776 672.1095,105.578104 C676.042044,109.227433 681.404524,111.052069 688.1971,111.052069 C690.520876,111.052069 692.665868,110.940811 694.63214,110.718291 C696.598412,110.495771 698.341218,110.161996 699.86061,109.716956 L699.86061,63.5220294 Z M762.200059,122 C756.837499,122 752.145329,121.087682 748.123409,119.263017 C744.101489,117.438353 740.749939,114.923915 738.068659,111.719626 C735.387379,108.515338 733.398793,104.732554 732.102841,100.371162 C730.806889,96.009769 730.158923,91.2924152 730.158923,86.2189586 C730.158923,81.145502 730.806889,76.4281482 732.102841,72.0667557 C733.398793,67.7053632 735.387379,63.9225794 738.068659,60.7182911 C740.749939,57.5140027 744.101489,54.9773124 748.123409,53.1081442 C752.145329,51.238976 756.837499,50.3044059 762.200059,50.3044059 C767.562619,50.3044059 772.254789,51.238976 776.276709,53.1081442 C780.298629,54.9773124 783.650179,57.5140027 786.331459,60.7182911 C789.012739,63.9225794 791.001325,67.7053632 792.297277,72.0667557 C793.593229,76.4281482 794.241196,81.145502 794.241196,86.2189586 C794.241196,91.2924152 793.593229,96.009769 792.297277,100.371162 C791.001325,104.732554 789.012739,108.515338 786.331459,111.719626 C783.650179,114.923915 780.298629,117.438353 776.276709,119.263017 C772.254789,121.087682 767.562619,122 762.200059,122 Z M762.200059,111.452603 C768.367003,111.452603 772.925111,109.227437 775.874519,104.777036 C778.823927,100.326636 780.298609,94.1406716 780.298609,86.2189586 C780.298609,78.2972457 778.823927,72.1335334 775.874519,67.7276368 C772.925111,63.3217403 768.367003,61.1188251 762.200059,61.1188251 C756.033115,61.1188251 751.497351,63.3217403 748.592631,67.7276368 C745.687911,72.1335334 744.235573,78.2972457 744.235573,86.2189586 C744.235573,94.1406716 745.687911,100.326636 748.592631,104.777036 C751.497351,109.227437 756.033115,111.452603 762.200059,111.452603 Z M857.519088,108.515354 C858.234097,109.761466 858.859719,111.319083 859.395975,113.188251 C859.932231,115.057419 860.245042,116.971063 860.334418,118.929239 C855.061234,120.976423 849.028445,122 842.235869,122 C830.79574,122 822.171086,118.773508 816.361645,112.320427 C810.552205,105.867346 807.647529,97.1669439 807.647529,86.2189586 C807.647529,81.145502 808.362526,76.4281482 809.792542,72.0667557 C811.222558,67.7053632 813.345206,63.9225794 816.16055,60.7182911 C818.975895,57.5140027 822.48385,54.9773124 826.684522,53.1081442 C830.885194,51.238976 835.756113,50.3044059 841.297425,50.3044059 C845.051217,50.3044059 848.35808,50.5269226 851.218112,50.9719626 C854.078144,51.4170027 856.804071,52.1290561 859.395975,53.1081442 C859.395975,54.6212804 859.194882,56.3791622 858.79269,58.3818425 C858.390498,60.3845227 857.831907,62.1424045 857.116898,63.6555407 C852.737474,62.1424045 847.732493,61.3858478 842.101805,61.3858478 C835.219853,61.3858478 830.08081,63.655518 826.684522,68.1949266 C823.288234,72.7343351 821.590115,78.7422857 821.590115,86.2189586 C821.590115,94.7637276 823.511671,101.016447 827.354839,104.977303 C831.198007,108.93816 836.471112,110.918558 843.174312,110.918558 C845.855592,110.918558 848.335739,110.740545 850.614827,110.384513 C852.893915,110.028481 855.195312,109.405434 857.519088,108.515354 Z M874.947322,51.9065421 C875.930458,51.728526 877.047641,51.595016 878.298905,51.506008 C879.550169,51.417 880.622665,51.3724967 881.516425,51.3724967 C882.499561,51.3724967 883.616744,51.417 884.868008,51.506008 C886.119272,51.595016 887.236456,51.728526 888.219592,51.9065421 L888.219592,89.423231 C888.219592,93.6956155 888.621778,97.2336308 889.426162,100.037383 C890.230546,102.841136 891.437104,105.044051 893.045872,106.646195 C894.65464,108.248339 896.620882,109.360923 898.944658,109.983979 C901.268434,110.607035 903.949674,110.918558 906.988458,110.918558 C911.546634,110.918558 915.434432,110.429021 918.651968,109.449933 L918.651968,51.9065421 C919.635104,51.728526 920.729944,51.595016 921.93652,51.506008 C923.143096,51.417 924.237935,51.3724967 925.221071,51.3724967 C926.204207,51.3724967 927.299047,51.417 928.505623,51.506008 C929.712199,51.595016 930.807039,51.728526 931.790175,51.9065421 L931.790175,118.261682 C928.662015,119.151762 924.930622,119.997326 920.595886,120.798398 C916.26115,121.59947 911.770074,122 907.122521,122 C902.743097,122 898.609519,121.621722 894.721663,120.865154 C890.833807,120.108585 887.415226,118.57322 884.465818,116.259012 C881.51641,113.944804 879.192669,110.69606 877.494525,106.512684 C875.796381,102.329307 874.947322,96.8108932 874.947322,89.9572764 L874.947322,51.9065421 Z M952.704054,51.9065421 C953.68719,51.728526 954.647968,51.595016 955.586416,51.506008 C956.524864,51.417 957.485642,51.3724967 958.468778,51.3724967 C959.451914,51.3724967 960.368004,51.417 961.217076,51.506008 C962.066148,51.595016 962.982238,51.728526 963.965374,51.9065421 C964.233502,53.2416622 964.501626,54.9995441 964.769754,57.1802403 C965.037882,59.3609366 965.171944,61.2078251 965.171944,62.7209613 C965.976328,61.1188171 966.981793,59.5834519 968.188369,58.1148198 C969.394945,56.6461876 970.82494,55.3333391 972.478396,54.176235 C974.131852,53.0191308 976.031064,52.0845607 978.176088,51.3724967 C980.321112,50.6604326 982.68954,50.3044059 985.281444,50.3044059 C990.644004,50.3044059 994.777582,51.3947377 997.682302,53.5754339 C1000.58702,55.7561302 1002.79905,58.8046088 1004.31844,62.7209613 C1005.2122,61.2078251 1006.30704,59.6947116 1007.60299,58.1815754 C1008.89894,56.6684393 1010.35128,55.3333391 1011.96005,54.176235 C1013.56882,53.0191308 1015.401,52.0845607 1017.45664,51.3724967 C1019.51229,50.6604326 1021.83603,50.3044059 1024.42794,50.3044059 C1032.3824,50.3044059 1038.16941,52.5295728 1041.78914,56.9799733 C1045.40887,61.4303738 1047.2187,68.0168678 1047.2187,76.7396529 L1047.2187,120.397864 C1046.23557,120.57588 1045.11838,120.70939 1043.86712,120.798398 C1042.61586,120.887406 1041.49867,120.931909 1040.51554,120.931909 C1039.5324,120.931909 1038.43756,120.887406 1037.23099,120.798398 C1036.02441,120.70939 1034.92957,120.57588 1033.94643,120.397864 L1033.94643,80.611482 C1033.94643,74.4699292 1033.008,69.8638338 1031.1311,66.7930574 C1029.25421,63.722281 1026.17078,62.1869159 1021.88073,62.1869159 C1017.32256,62.1869159 1013.63585,63.8335394 1010.82051,67.1268358 C1008.00516,70.4201322 1006.59751,75.270996 1006.59751,81.6795728 L1006.59751,120.397864 C1005.61438,120.57588 1004.51954,120.70939 1003.31296,120.798398 C1002.10639,120.887406 1001.01155,120.931909 1000.02841,120.931909 C999.045275,120.931909 997.950435,120.887406 996.743859,120.798398 C995.537283,120.70939 994.442444,120.57588 993.459307,120.397864 L993.459307,79.6769025 C993.459307,73.7133658 992.565561,69.2407804 990.778041,66.259012 C988.990521,63.2772437 986.130532,61.7863818 982.197988,61.7863818 C979.963588,61.7863818 977.863283,62.2759186 975.897011,63.2550067 C973.930739,64.2340948 972.210277,65.7027049 970.735573,67.6608812 C969.260869,69.6190574 968.098998,72.0889927 967.249926,75.070761 C966.400854,78.0525294 965.976324,81.5015381 965.976324,85.4178905 L965.976324,120.397864 C964.993188,120.57588 963.898349,120.70939 962.691773,120.798398 C961.485197,120.887406 960.390357,120.931909 959.407221,120.931909 C958.424085,120.931909 957.306902,120.887406 956.055638,120.798398 C954.804374,120.70939 953.68719,120.57588 952.704054,120.397864 L952.704054,51.9065421 Z M1077.11483,89.423231 C1077.29358,96.8999039 1079.23748,102.373814 1082.94658,105.845127 C1086.65569,109.316439 1092.12988,111.052069 1099.36934,111.052069 C1105.71504,111.052069 1111.74783,109.939486 1117.46789,107.714286 C1118.1829,109.049406 1118.76383,110.673778 1119.21071,112.58745 C1119.65759,114.501122 1119.92572,116.392514 1120.01509,118.261682 C1117.06569,119.507794 1113.82585,120.442364 1110.2955,121.065421 C1106.76515,121.688477 1102.85501,122 1098.56496,122 C1092.30864,122 1086.94616,121.132185 1082.47736,119.396529 C1078.00856,117.660872 1074.32186,115.213189 1071.41714,112.053405 C1068.51242,108.89362 1066.38977,105.15534 1065.04913,100.838451 C1063.70849,96.5215628 1063.03818,91.7819573 1063.03818,86.6194927 C1063.03818,81.546036 1063.68614,76.8064306 1064.9821,72.400534 C1066.27805,67.9946375 1068.26663,64.1673505 1070.94791,60.9185581 C1073.62919,57.6697657 1077.00309,55.0885721 1081.0697,53.1748999 C1085.1363,51.2612276 1089.94019,50.3044059 1095.4815,50.3044059 C1100.21843,50.3044059 1104.37435,51.105466 1107.94939,52.7076101 C1111.52443,54.3097543 1114.51848,56.5126696 1116.93164,59.3164219 C1119.34479,62.1201742 1121.17697,65.4579246 1122.42823,69.329773 C1123.6795,73.2016215 1124.30512,77.4071869 1124.30512,81.9465955 C1124.30512,83.1927076 1124.26043,84.5055561 1124.17106,85.8851802 C1124.08168,87.2648044 1123.99231,88.4441429 1123.90293,89.423231 L1077.11483,89.423231 Z M1111.16691,79.5433912 C1111.16691,77.0511669 1110.83176,74.6702383 1110.16144,72.400534 C1109.49112,70.1308298 1108.508,68.1504312 1107.21204,66.459279 C1105.91609,64.7681268 1104.26266,63.410775 1102.2517,62.3871829 C1100.24074,61.3635908 1097.84997,60.8518024 1095.07931,60.8518024 C1089.62738,60.8518024 1085.44911,62.4984259 1082.54439,65.7917223 C1079.63967,69.0850187 1077.87452,73.6688625 1077.24889,79.5433912 L1111.16691,79.5433912 Z M1141.73335,51.9065421 C1142.71649,51.728526 1143.67727,51.595016 1144.61571,51.506008 C1145.55416,51.417 1146.51494,51.3724967 1147.49808,51.3724967 C1148.48121,51.3724967 1149.3973,51.417 1150.24637,51.506008 C1151.09545,51.595016 1152.01154,51.728526 1152.99467,51.9065421 C1153.2628,53.2416622 1153.53092,55.0440474 1153.79905,57.3137517 C1154.06718,59.5834559 1154.20124,61.4748478 1154.20124,62.987984 C1155.095,61.4748478 1156.23453,59.9617343 1157.61986,58.4485981 C1159.00519,56.9354619 1160.59159,55.5781101 1162.37911,54.376502 C1164.16663,53.1748939 1166.22224,52.1958204 1168.54602,51.4392523 C1170.8698,50.6826842 1173.41697,50.3044059 1176.18763,50.3044059 C1184.05272,50.3044059 1189.86207,52.5518244 1193.61586,57.046729 C1197.36965,61.5416335 1199.24652,68.1948825 1199.24652,77.0066756 L1199.24652,120.397864 C1198.26339,120.57588 1197.1462,120.70939 1195.89494,120.798398 C1194.64368,120.887406 1193.52649,120.931909 1192.54336,120.931909 C1191.56022,120.931909 1190.46538,120.887406 1189.2588,120.798398 C1188.05223,120.70939 1186.95739,120.57588 1185.97425,120.397864 L1185.97425,80.611482 C1185.97425,74.2919132 1184.99113,69.6413144 1183.02486,66.6595461 C1181.05859,63.6777777 1177.93047,62.1869159 1173.64043,62.1869159 C1171.1379,62.1869159 1168.76947,62.6319493 1166.53507,63.5220294 C1164.30067,64.4121095 1162.33443,65.791713 1160.63628,67.6608812 C1158.93814,69.5300494 1157.57518,71.9554813 1156.54735,74.9372497 C1155.51953,77.919018 1155.00562,81.5015367 1155.00562,85.6849132 L1155.00562,120.397864 C1154.02249,120.57588 1152.92765,120.70939 1151.72107,120.798398 C1150.5145,120.887406 1149.41966,120.931909 1148.43652,120.931909 C1147.45338,120.931909 1146.3362,120.887406 1145.08494,120.798398 C1143.83367,120.70939 1142.71649,120.57588 1141.73335,120.397864 L1141.73335,51.9065421 Z M1221.76916,62.4539386 L1211.31222,62.4539386 L1210.77597,60.5847797 L1233.83486,34.9506008 L1234.90737,34.9506008 L1234.90737,51.9065421 L1252.3356,51.9065421 C1252.69311,53.4196782 1252.87186,55.1108051 1252.87186,56.9799733 C1252.87186,57.9590614 1252.82717,58.8936315 1252.73779,59.7837116 C1252.64842,60.6737917 1252.51435,61.5638585 1252.3356,62.4539386 L1234.90737,62.4539386 L1234.90737,93.6955941 C1234.90737,97.4339306 1235.06377,100.415654 1235.37659,102.640854 C1235.68941,104.866055 1236.22565,106.579433 1236.98535,107.781041 C1237.74505,108.98265 1238.77286,109.78371 1240.06881,110.184246 C1241.36476,110.584782 1242.99585,110.785047 1244.96212,110.785047 C1246.48151,110.785047 1247.91151,110.673788 1249.25215,110.451268 C1250.59279,110.228748 1251.79934,109.98398 1252.87186,109.716956 C1253.49749,111.497116 1253.87733,113.321753 1254.01139,115.190921 C1254.14546,117.060089 1254.21249,118.706713 1254.21249,120.130841 C1252.42497,120.575881 1250.5481,120.909656 1248.58183,121.132176 C1246.61556,121.354696 1244.51525,121.465955 1242.28085,121.465955 C1235.84578,121.465955 1230.81846,119.908338 1227.19873,116.793057 C1223.579,113.677777 1221.76916,108.51539 1221.76916,101.305741 L1221.76916,62.4539386 Z M1303.5478,88.2216288 C1302.20716,88.0436128 1300.50904,87.8655995 1298.45339,87.6875834 C1296.39774,87.5095674 1294.65493,87.4205607 1293.22492,87.4205607 C1287.68361,87.4205607 1283.46065,88.4441375 1280.55593,90.4913218 C1277.65121,92.538506 1276.19888,95.6537397 1276.19888,99.8371162 C1276.19888,102.507356 1276.69044,104.599013 1277.67357,106.11215 C1278.65671,107.625286 1279.88561,108.782372 1281.36031,109.583445 C1282.83502,110.384517 1284.46611,110.874053 1286.25363,111.052069 C1288.04115,111.230085 1289.73926,111.319092 1291.34803,111.319092 C1293.40368,111.319092 1295.52633,111.207834 1297.71604,110.985314 C1299.90575,110.762794 1301.84965,110.429019 1303.5478,109.983979 L1303.5478,88.2216288 Z M1303.5478,75.271028 C1303.5478,70.0195554 1302.20718,66.3702817 1299.5259,64.3230975 C1296.84462,62.2759132 1292.95682,61.2523364 1287.86239,61.2523364 C1284.73423,61.2523364 1281.80721,61.4971048 1279.08124,61.9866489 C1276.35527,62.4761929 1273.69637,63.1214913 1271.10447,63.9225634 C1269.40632,60.9852991 1268.55727,57.4695354 1268.55727,53.3751669 C1271.59605,52.3960788 1274.9476,51.639522 1278.61202,51.105474 C1282.27643,50.5714259 1285.80673,50.3044059 1289.20302,50.3044059 C1298.14062,50.3044059 1304.93309,52.3293077 1309.58065,56.3791722 C1314.2282,60.4290367 1316.55194,66.9042724 1316.55194,75.8050734 L1316.55194,118.662216 C1313.42378,119.37428 1309.62536,120.108585 1305.15656,120.865154 C1300.68776,121.621722 1296.12965,122 1291.4821,122 C1287.10267,122 1283.14784,121.59947 1279.61749,120.798398 C1276.08714,119.997326 1273.09309,118.706729 1270.63525,116.926569 C1268.17741,115.146409 1266.2782,112.876738 1264.93756,110.11749 C1263.59692,107.358242 1262.92661,104.020491 1262.92661,100.104139 C1262.92661,96.2767944 1263.70863,92.9167924 1265.27271,90.024032 C1266.83679,87.1312717 1268.95944,84.7280915 1271.64072,82.8144192 C1274.322,80.900747 1277.40543,79.4766402 1280.89109,78.5420561 C1284.37676,77.607472 1288.04112,77.1401869 1291.88429,77.1401869 C1294.74432,77.1401869 1297.0904,77.2069419 1298.92261,77.3404539 C1300.75482,77.473966 1302.29653,77.6297276 1303.5478,77.8077437 L1303.5478,75.271028 Z M1339.07458,62.4539386 L1328.61764,62.4539386 L1328.08139,60.5847797 L1351.14028,34.9506008 L1352.21278,34.9506008 L1352.21278,51.9065421 L1369.64102,51.9065421 C1369.99852,53.4196782 1370.17727,55.1108051 1370.17727,56.9799733 C1370.17727,57.9590614 1370.13258,58.8936315 1370.04321,59.7837116 C1369.95383,60.6737917 1369.81977,61.5638585 1369.64102,62.4539386 L1352.21278,62.4539386 L1352.21278,93.6955941 C1352.21278,97.4339306 1352.36919,100.415654 1352.68201,102.640854 C1352.99482,104.866055 1353.53107,106.579433 1354.29077,107.781041 C1355.05046,108.98265 1356.07827,109.78371 1357.37422,110.184246 C1358.67018,110.584782 1360.30126,110.785047 1362.26753,110.785047 C1363.78693,110.785047 1365.21692,110.673788 1366.55756,110.451268 C1367.8982,110.228748 1369.10476,109.98398 1370.17727,109.716956 C1370.8029,111.497116 1371.18275,113.321753 1371.31681,115.190921 C1371.45087,117.060089 1371.5179,118.706713 1371.5179,120.130841 C1369.73038,120.575881 1367.85352,120.909656 1365.88724,121.132176 C1363.92097,121.354696 1361.82067,121.465955 1359.58627,121.465955 C1353.1512,121.465955 1348.12387,119.908338 1344.50414,116.793057 C1340.88442,113.677777 1339.07458,108.51539 1339.07458,101.305741 L1339.07458,62.4539386 Z M1388.54395,62.3204272 L1379.82983,62.3204272 C1379.65108,61.6083632 1379.51702,60.7850514 1379.42764,59.8504673 C1379.33827,58.9158832 1379.29358,58.0035648 1379.29358,57.1134846 C1379.29358,56.2234045 1379.33827,55.3110861 1379.42764,54.376502 C1379.51702,53.4419179 1379.65108,52.6186061 1379.82983,51.9065421 L1401.54809,51.9065421 L1401.54809,120.397864 C1400.56496,120.57588 1399.47012,120.70939 1398.26354,120.798398 C1397.05696,120.887406 1395.96212,120.931909 1394.97899,120.931909 C1394.08523,120.931909 1393.03508,120.887406 1391.8285,120.798398 C1390.62192,120.70939 1389.52708,120.57588 1388.54395,120.397864 L1388.54395,62.3204272 Z M1385.59455,36.8197597 C1385.4158,35.7516636 1385.30408,34.5945768 1385.2594,33.3484646 C1385.21471,32.1023525 1385.19236,30.989769 1385.19236,30.0106809 C1385.19236,29.0315928 1385.21471,27.9190093 1385.2594,26.6728972 C1385.30408,25.426785 1385.4158,24.3142016 1385.59455,23.3351135 C1386.75644,23.1570975 1388.00769,23.0235874 1389.34833,22.9345794 C1390.68897,22.8455714 1391.85084,22.8010681 1392.83397,22.8010681 C1393.81711,22.8010681 1394.97898,22.8455714 1396.31962,22.9345794 C1397.66026,23.0235874 1398.86682,23.1570975 1399.93933,23.3351135 C1400.11808,24.3142016 1400.2298,25.426785 1400.27449,26.6728972 C1400.31918,27.9190093 1400.34152,29.0315928 1400.34152,30.0106809 C1400.34152,30.989769 1400.31918,32.1023525 1400.27449,33.3484646 C1400.2298,34.5945768 1400.11808,35.7516636 1399.93933,36.8197597 C1398.86682,36.9977757 1397.6826,37.1312857 1396.38665,37.2202937 C1395.0907,37.3093017 1393.95117,37.3538051 1392.96804,37.3538051 C1391.89553,37.3538051 1390.68897,37.3093017 1389.34833,37.2202937 C1388.00769,37.1312857 1386.75644,36.9977757 1385.59455,36.8197597 Z M1451.01746,122 C1445.6549,122 1440.96273,121.087682 1436.94081,119.263017 C1432.91889,117.438353 1429.56734,114.923915 1426.88606,111.719626 C1424.20478,108.515338 1422.21619,104.732554 1420.92024,100.371162 C1419.62429,96.009769 1418.97632,91.2924152 1418.97632,86.2189586 C1418.97632,81.145502 1419.62429,76.4281482 1420.92024,72.0667557 C1422.21619,67.7053632 1424.20478,63.9225794 1426.88606,60.7182911 C1429.56734,57.5140027 1432.91889,54.9773124 1436.94081,53.1081442 C1440.96273,51.238976 1445.6549,50.3044059 1451.01746,50.3044059 C1456.38002,50.3044059 1461.07219,51.238976 1465.09411,53.1081442 C1469.11603,54.9773124 1472.46758,57.5140027 1475.14886,60.7182911 C1477.83014,63.9225794 1479.81873,67.7053632 1481.11468,72.0667557 C1482.41063,76.4281482 1483.0586,81.145502 1483.0586,86.2189586 C1483.0586,91.2924152 1482.41063,96.009769 1481.11468,100.371162 C1479.81873,104.732554 1477.83014,108.515338 1475.14886,111.719626 C1472.46758,114.923915 1469.11603,117.438353 1465.09411,119.263017 C1461.07219,121.087682 1456.38002,122 1451.01746,122 Z M1451.01746,111.452603 C1457.1844,111.452603 1461.74251,109.227437 1464.69192,104.777036 C1467.64133,100.326636 1469.11601,94.1406716 1469.11601,86.2189586 C1469.11601,78.2972457 1467.64133,72.1335334 1464.69192,67.7276368 C1461.74251,63.3217403 1457.1844,61.1188251 1451.01746,61.1188251 C1444.85052,61.1188251 1440.31475,63.3217403 1437.41003,67.7276368 C1434.50531,72.1335334 1433.05297,78.2972457 1433.05297,86.2189586 C1433.05297,94.1406716 1434.50531,100.326636 1437.41003,104.777036 C1440.31475,109.227437 1444.85052,111.452603 1451.01746,111.452603 Z M1500.48683,51.9065421 C1501.46997,51.728526 1502.43074,51.595016 1503.36919,51.506008 C1504.30764,51.417 1505.26842,51.3724967 1506.25155,51.3724967 C1507.23469,51.3724967 1508.15078,51.417 1508.99985,51.506008 C1509.84892,51.595016 1510.76501,51.728526 1511.74815,51.9065421 C1512.01628,53.2416622 1512.2844,55.0440474 1512.55253,57.3137517 C1512.82066,59.5834559 1512.95472,61.4748478 1512.95472,62.987984 C1513.84848,61.4748478 1514.98801,59.9617343 1516.37334,58.4485981 C1517.75866,56.9354619 1519.34506,55.5781101 1521.13258,54.376502 C1522.9201,53.1748939 1524.97572,52.1958204 1527.2995,51.4392523 C1529.62327,50.6826842 1532.17045,50.3044059 1534.94111,50.3044059 C1542.80619,50.3044059 1548.61555,52.5518244 1552.36934,57.046729 C1556.12313,61.5416335 1558,68.1948825 1558,77.0066756 L1558,120.397864 C1557.01686,120.57588 1555.89968,120.70939 1554.64842,120.798398 C1553.39715,120.887406 1552.27997,120.931909 1551.29683,120.931909 C1550.3137,120.931909 1549.21886,120.887406 1548.01228,120.798398 C1546.80571,120.70939 1545.71087,120.57588 1544.72773,120.397864 L1544.72773,80.611482 C1544.72773,74.2919132 1543.74461,69.6413144 1541.77834,66.6595461 C1539.81206,63.6777777 1536.68395,62.1869159 1532.3939,62.1869159 C1529.89138,62.1869159 1527.52295,62.6319493 1525.28855,63.5220294 C1523.05415,64.4121095 1521.0879,65.791713 1519.38976,67.6608812 C1517.69162,69.5300494 1516.32865,71.9554813 1515.30083,74.9372497 C1514.273,77.919018 1513.7591,81.5015367 1513.7591,85.6849132 L1513.7591,120.397864 C1512.77596,120.57588 1511.68112,120.70939 1510.47455,120.798398 C1509.26797,120.887406 1508.17313,120.931909 1507.19,120.931909 C1506.20686,120.931909 1505.08968,120.887406 1503.83841,120.798398 C1502.58715,120.70939 1501.46997,120.57588 1500.48683,120.397864 L1500.48683,51.9065421 Z" id="documentation" fill="#11324D"></path>
            <g id="akeneo">
                <path d="M140.002051,95.0989439 C140.162051,94.7989439 140.452051,94.4989439 140.742051,94.1689439 C141.082051,93.7689439 141.512051,93.3889439 141.742051,92.9289439 C145.722051,87.9289439 147.242051,80.1689439 146.762051,71.0289439 C146.642051,70.1289439 146.562051,69.3689439 146.542051,68.5289439 C146.442051,67.1589439 146.282051,65.6589439 146.042051,64.1089439 C146.002051,63.9689439 145.962051,63.8289439 145.962051,63.6089439 C145.922051,63.2089439 145.792051,62.8089439 145.762051,62.4089439 L145.602051,61.1489439 C145.562051,60.7689439 145.432051,60.3489439 145.402051,59.9689439 C145.272051,59.5489439 145.282051,59.0689439 145.152051,58.6489439 C145.052051,58.3689439 145.032051,57.9889439 144.952051,57.7089439 C142.702051,46.0689439 138.382051,33.4489439 133.052051,21.5889439 C127.782051,33.5089439 121.452051,44.9889439 115.252051,53.3189439 C107.712051,63.4489439 96.4820505,73.8689439 84.5520505,82.2389439 C72.4820505,73.9389439 61.3520505,63.6089439 53.6820505,53.4789439 C47.3820505,44.9989439 41.0020505,33.7789439 35.6420505,21.7789439 L34.4020505,24.7989439 C34.2420505,25.0789439 34.1820505,25.3989439 34.0420505,25.6789439 C33.7820505,26.3789439 33.3920505,27.1189439 33.1420505,27.8189439 C32.9920505,28.0989439 32.8920505,28.5189439 32.7420505,28.7889439 L31.9420505,30.9689439 C31.7920505,31.2389439 31.7420505,31.5689439 31.5820505,31.8489439 C31.2320505,32.7289439 30.8320505,33.7089439 30.5820505,34.6489439 C30.0820505,36.0289439 29.6820505,37.0089439 29.3220505,38.1189439 C28.9220505,39.3189439 28.5620505,40.2189439 28.3020505,41.1489439 C28.2020505,41.3289439 28.2020505,41.5689439 28.1020505,41.7489439 C27.8420505,42.6789439 27.5420505,43.4689439 27.2820505,44.3989439 C27.1820505,44.5989439 27.2320505,44.7389439 27.1320505,44.9189439 C26.8320505,45.9489439 26.5120505,46.9689439 26.2620505,47.8989439 C25.3820505,51.1189439 24.6420505,54.2989439 24.0620505,57.4189439 C23.0020505,62.6989439 22.3720505,67.6989439 22.3020505,72.2789439 C22.3020505,72.9789439 22.3320505,73.5989439 22.3020505,74.2989439 C22.3020505,74.9989439 22.2320505,75.5589439 22.2620505,76.1689439 C22.2420505,76.8689439 22.2820505,77.4889439 22.3120505,78.0989439 C22.3920505,79.0789439 22.4620505,79.8389439 22.5420505,80.5989439 C22.5720505,80.9589439 22.5220505,81.0589439 22.6220505,81.0989439 C22.7920505,81.8989439 22.9220505,82.7989439 23.0820505,83.5989439 C23.2520505,84.1689439 23.3320505,84.6989439 23.5120505,85.2489439 C23.5820505,85.5489439 23.6320505,85.6789439 23.7120505,85.9489439 C23.8120505,86.2489439 23.9820505,86.5789439 24.0120505,86.9489439 L24.2320505,87.6489439 C24.3320505,87.9489439 24.4120505,88.2289439 24.5820505,88.5489439 C24.7220505,88.7489439 24.8120505,89.0489439 24.8520505,89.1789439 C24.9520505,89.4589439 25.1220505,89.7989439 25.2520505,89.9789439 C25.3920505,90.1789439 25.5220505,90.3789439 25.5220505,90.5989439 C25.6220505,90.8989439 25.8420505,91.1289439 26.0220505,91.4589439 C26.1620505,91.6589439 26.2920505,91.8389439 26.3420505,91.9789439 C26.5620505,92.2189439 26.7420505,92.5589439 26.9720505,92.7989439 C27.0220505,92.9389439 27.2020505,93.0389439 27.2420505,93.1789439 C27.5220505,93.5589439 27.8820505,93.9789439 28.2020505,94.2789439 C28.4320505,94.5189439 28.6620505,94.7589439 28.8020505,94.9489439 C45.7620505,111.688944 70.4320505,114.848944 84.7820505,146.328944 C98.9420505,114.558944 123.062051,111.828944 140.032051,95.0889439 L140.002051,95.0989439 Z" id="Shape" fill="url(#linearGradient-1)" fill-rule="nonzero" transform="translate(84.551124, 83.958944) rotate(-27.000000) translate(-84.551124, -83.958944) "></path>
                <path d="M101.380351,41.8489683 C93.8603507,51.9689683 82.6303507,62.3989683 70.7003507,70.7489683 C92.0303507,85.5489683 115.920351,93.7489683 126.750351,82.5189683 C138.590351,70.2989683 131.670351,37.9989683 119.200351,10.1189683 C113.880351,22.1189683 107.640351,33.4189683 101.380351,41.8489683 Z" id="Shape" fill="url(#linearGradient-2)" fill-rule="nonzero" opacity="0.51" transform="translate(101.780223, 48.935416) rotate(-27.000000) translate(-101.780223, -48.935416) "></path>
                <path d="M46.7215092,70.2687428 C40.4215092,61.7987428 34.0415092,50.5987428 28.6715092,38.5987428 C16.3715092,66.5987428 9.67150923,98.8987428 21.5415092,111.138743 C32.4615092,122.288743 56.2415092,113.938743 77.5915092,99.0387428 C65.4915092,90.7087428 54.2915092,80.3387428 46.7115092,70.2687428 L46.7215092,70.2687428 Z" id="Shape" fill="url(#linearGradient-3)" fill-rule="nonzero" opacity="0.51" transform="translate(46.463272, 77.437716) rotate(-27.000000) translate(-46.463272, -77.437716) "></path>
                <path d="M39.2011326,36.1411202 C31.6611326,53.2611202 26.3011326,72.0211202 25.9011326,86.8811202 C25.9211326,87.4811202 25.9011326,88.1811202 25.8411326,88.7511202 C25.9111326,89.5011202 25.9411326,90.1111202 25.8811326,90.6711202 C25.9111326,91.5211202 25.9811326,92.0411202 25.9311326,92.6011202 C26.0011326,93.3511202 26.0311326,93.9611202 26.1311326,94.4811202 C26.1511326,94.8511202 26.2311326,95.1411202 26.2811326,95.5111202 C26.2811326,95.9911202 26.3511326,96.2811202 26.4011326,96.4111202 C26.4811326,96.9311202 26.6511326,97.5111202 26.7311326,98.0111202 C27.6511326,102.31112 29.3911326,105.96112 31.9911326,108.65112 C32.2111326,108.89112 32.4411326,109.13112 32.5911326,109.33112 C49.5411326,126.06112 73.8911326,128.93112 88.2411326,160.41112 C87.8611326,156.89112 82.1811326,125.84112 61.8411326,102.93112 C34.9411326,72.7311202 39.2011326,36.1511202 39.2011326,36.1511202 L39.2011326,36.1411202 Z" id="Shape" fill="url(#linearGradient-4)" fill-rule="nonzero" transform="translate(57.041133, 98.276120) rotate(-27.000000) translate(-57.041133, -98.276120) "></path>
                <path d="M137.349087,79.9405987 C149.189087,67.7105987 142.269087,35.4205987 129.809087,7.54059867 C129.809087,7.54059867 134.139087,44.0405987 107.459087,74.3705987 C86.7990867,97.8005987 81.7690867,129.570599 81.4290867,132.000599 C95.5890867,100.240599 119.709087,97.5005987 136.679087,80.7705987 C136.779087,80.5705987 137.059087,80.2705987 137.349087,79.9405987 Z" id="Shape" fill="url(#linearGradient-5)" fill-rule="nonzero" transform="translate(112.444196, 69.770599) rotate(-27.000000) translate(-112.444196, -69.770599) "></path>
                <path d="M43.43,70.93 C33.98,66.26 23.2,59.15 12.97,50.9 C14.75,81.44 23.41,113.26 39.57,118.78 C54.34,123.76 71.74,105.5 84,82.55 C69.46,80.62 54.76,76.48 43.43,70.93" id="Shape"></path>
            </g>
        </g>
    </g>
</svg>