
<svg width="1530px" height="134px" viewBox="0 0 1530 134" version="1.1" xmlns="http://www.w3.org/2000/svg" xmlns:xlink="http://www.w3.org/1999/xlink">
    <!-- Generator: Sketch 47.1 (45422) - http://www.bohemiancoding.com/sketch -->
    <desc>Created with Sketch.</desc>
    <defs>
        <linearGradient x1="3.64585692%" y1="60.2126349%" x2="100.421828%" y2="61.6251786%" id="linearGradient-1">
            <stop stop-color="#5F2385" offset="4.29448%"></stop>
            <stop stop-color="#9452BA" offset="96.93%"></stop>
        </linearGradient>
        <linearGradient x1="47.7381753%" y1="158.605027%" x2="22.4503338%" y2="-9.02034533%" id="linearGradient-2">
            <stop stop-color="#5F2385" offset="4.29448%"></stop>
            <stop stop-color="#FFFFFF" offset="100%"></stop>
        </linearGradient>
        <linearGradient x1="51.1212032%" y1="155.153296%" x2="54.2008291%" y2="-18.0298783%" id="linearGradient-3">
            <stop stop-color="#5F2385" offset="4.29448%"></stop>
            <stop stop-color="#FFFFFF" offset="100%"></stop>
        </linearGradient>
        <linearGradient x1="45.937248%" y1="5.06196818%" x2="39.7214313%" y2="108.60836%" id="linearGradient-4">
            <stop stop-color="#4F1374" offset="23.31%"></stop>
            <stop stop-color="#5F2385" offset="84.05%"></stop>
        </linearGradient>
        <linearGradient x1="8.18752607%" y1="-5.5543562%" x2="72.7683516%" y2="98.7220288%" id="linearGradient-5">
            <stop stop-color="#4F1374" offset="23.31%"></stop>
            <stop stop-color="#5F2385" offset="84.05%"></stop>
        </linearGradient>
    </defs>
    <g id="Page-1" stroke="none" stroke-width="1" fill="none" fill-rule="evenodd">
        <g id="Desktop" transform="translate(-113.000000, -125.000000)">
            <g id="Group-5" transform="translate(101.000000, 119.000000)">
                <g id="Group-4">
                    <g id="Group-2">
                        <g id="Group">
                            <path d="M208.120798,89.4799652 C206.769166,89.2992598 205.054026,89.1151123 202.978793,88.9344069 C200.903559,88.7537014 199.145754,88.6607672 197.703672,88.6607672 C192.109415,88.6607672 187.846312,89.7071378 184.916069,91.7998788 C181.984118,93.8908989 180.518143,97.0747566 180.518143,101.34801 C180.518143,104.079243 181.014766,106.218452 182.008011,107.763913 C182.997843,109.309375 184.238546,110.491705 185.728413,111.312624 C187.216574,112.12838 188.861743,112.629192 190.665626,112.81334 C192.469509,112.994045 194.184649,113.085258 195.809338,113.085258 C197.882865,113.085258 200.024657,112.971672 202.234712,112.742778 C204.444768,112.517327 206.407365,112.176568 208.120798,111.720502 L208.120798,89.4799652 Z M208.120798,76.2437222 C208.120798,70.8759102 206.769166,67.1499362 204.062488,65.0537531 C201.35581,62.9627331 197.432321,61.9163626 192.290316,61.9163626 C189.133093,61.9163626 186.178957,62.1676292 183.427908,62.6684414 C180.675151,63.1675326 177.992366,63.8266772 175.376138,64.6458752 C173.662705,61.6444439 172.807695,58.0509872 172.807695,53.8672261 C175.87276,52.8656017 179.255254,52.0928708 182.955178,51.5455915 C186.651687,51.0017542 190.215082,50.7263935 193.643655,50.7263935 C202.663071,50.7263935 209.518509,52.7984825 214.209971,56.9374975 C218.899726,61.0765125 221.24631,67.6937735 221.24631,76.7892805 L221.24631,120.588836 C218.087381,121.318542 214.254343,122.0689 209.745488,122.83991 C205.234927,123.612641 200.633915,123.999867 195.94416,123.999867 C191.524049,123.999867 187.532296,123.591989 183.968902,122.772791 C180.405507,121.953593 177.383107,120.637025 174.903408,118.816202 C172.422002,116.997101 170.507189,114.677187 169.15385,111.856461 C167.800511,109.037456 167.124695,105.628147 167.124695,101.623371 C167.124695,97.7132491 167.91144,94.2781248 169.491758,91.3214397 C171.068663,88.3664755 173.21216,85.9106026 175.918839,83.9520998 C178.625517,81.9987601 181.738367,80.5427906 185.255683,79.5876333 C188.772999,78.630755 192.469509,78.1540368 196.350333,78.1540368 C199.234498,78.1540368 201.603268,78.221156 203.453229,78.3588363 C205.301484,78.4965166 206.85791,78.654849 208.120798,78.8355545 L208.120798,76.2437222 Z" id="Fill-1" fill="#11324D"></path>
                            <path d="M254.500734,86.0680745 L279.968424,52.36565 C281.139157,52.1832235 282.313302,52.0472642 283.485741,51.956051 C284.658179,51.8648378 285.87499,51.8183706 287.141292,51.8183706 C288.492924,51.8183706 289.777999,51.8648378 290.996516,51.956051 C292.213327,52.0472642 293.452323,52.1832235 294.716919,52.36565 L269.249228,85.1129171 L298.505585,122.362331 C297.24099,122.544758 296.024179,122.678996 294.851741,122.77193 C293.679302,122.863143 292.460785,122.906169 291.197896,122.906169 C289.935007,122.906169 288.672118,122.863143 287.410936,122.77193 C286.144634,122.678996 284.883451,122.544758 283.620563,122.362331 L254.500734,86.0680745 Z M240.864947,22.3461744 C241.856486,22.1654689 242.962367,22.0295096 244.180884,21.9382964 C245.397694,21.8488042 246.501869,21.8006161 247.495114,21.8006161 C248.486652,21.8006161 249.613013,21.8488042 250.877608,21.9382964 C252.140497,22.0295096 253.266857,22.1654689 254.260103,22.3461744 L254.260103,122.362331 C253.266857,122.544758 252.140497,122.678996 250.877608,122.77193 C249.613013,122.863143 248.486652,122.906169 247.495114,122.906169 C246.501869,122.906169 245.397694,122.863143 244.180884,122.77193 C242.962367,122.678996 241.856486,122.544758 240.864947,122.362331 L240.864947,22.3461744 Z" id="Fill-4" fill="#11324D"></path>
                            <path d="M352.628224,80.6093935 C352.628224,78.0640283 352.290316,75.6305284 351.612793,73.3106148 C350.936977,70.9889802 349.942026,68.9685213 348.636472,67.2371911 C347.329211,65.5110239 345.658443,64.1238946 343.630994,63.0775241 C341.600133,62.0311535 339.185284,61.5062473 336.389863,61.5062473 C330.889469,61.5062473 326.670738,63.1928313 323.738788,66.5539525 C320.806838,69.9236786 319.026847,74.6065309 318.395403,80.6093935 L352.628224,80.6093935 Z M318.258874,90.7065249 C318.439774,98.3495043 320.402372,103.942768 324.146667,107.489757 C327.889255,111.040189 333.415247,112.812823 340.72123,112.812823 C347.124418,112.812823 353.21359,111.676961 358.987041,109.400072 C359.707229,110.763107 360.294301,112.425597 360.746552,114.380658 C361.197096,116.33744 361.468447,118.268407 361.55719,120.178721 C358.580868,121.452264 355.31101,122.407422 351.747615,123.044193 C348.184221,123.679244 344.238546,123.99935 339.908885,123.99935 C333.594441,123.99935 328.182791,123.111312 323.67223,121.338678 C319.161669,119.566044 315.43956,117.065425 312.509316,113.8351 C309.57566,110.606496 307.437282,106.787588 306.083943,102.373212 C304.730604,97.9605574 304.053081,93.1176517 304.053081,87.8410529 C304.053081,82.6573884 304.706711,77.8127617 306.015678,73.3106148 C307.319526,68.8084679 309.329908,64.8966255 312.036586,61.5768084 C314.743264,58.2569914 318.146238,55.618692 322.252333,53.6619103 C326.355016,51.7068496 331.201778,50.7275982 336.797742,50.7275982 C341.57624,50.7275982 345.771079,51.5467962 349.380552,53.1851921 C352.988318,54.8218671 356.010719,57.0729405 358.44434,59.9384125 C360.881374,62.8021634 362.727922,66.2149147 363.992518,70.1732242 C365.2537,74.1298128 365.888558,78.4254392 365.888558,83.0652664 C365.888558,84.3405305 365.840773,85.6829137 365.750323,87.0924161 C365.661579,88.5036395 365.571129,89.7066214 365.480679,90.7065249 L318.258874,90.7065249 Z" id="Fill-7" fill="#11324D"></path>
                            <path d="M383.478723,52.36565 C384.470261,52.1832235 385.439614,52.0472642 386.38678,51.956051 C387.335653,51.8648378 388.301593,51.8183706 389.296544,51.8183706 C390.288083,51.8183706 391.213064,51.8648378 392.06978,51.956051 C392.926497,52.0472642 393.849771,52.1832235 394.843016,52.36565 C395.11266,53.7286853 395.38401,55.5701597 395.657067,57.8917943 C395.926711,60.2099869 396.06324,62.1461166 396.06324,63.6898573 C396.962621,62.1461166 398.111168,60.5989339 399.512292,59.0500301 C400.908296,57.5045684 402.509093,56.117439 404.314683,54.8886421 C406.118566,53.6615661 408.193799,52.6599417 410.538677,51.8889318 C412.881848,51.1162009 415.453704,50.727254 418.250832,50.727254 C426.188259,50.727254 432.053866,53.0247946 435.842533,57.6198757 C439.629493,62.2132358 441.525533,69.0112022 441.525533,78.015496 L441.525533,122.362331 C440.532288,122.544758 439.404221,122.678996 438.143039,122.77193 C436.88015,122.863143 435.750376,122.906169 434.758838,122.906169 C433.765593,122.906169 432.661418,122.863143 431.444608,122.77193 C430.229504,122.678996 429.121916,122.544758 428.130378,122.362331 L428.130378,81.7001659 C428.130378,75.2429583 427.135426,70.4912658 425.152349,67.4416464 C423.165859,64.3971901 420.010343,62.8723804 415.678976,62.8723804 C413.156611,62.8723804 410.762242,63.3267255 408.511228,64.2371367 C406.255094,65.1458269 404.270311,66.5553293 402.556878,68.4656439 C400.841738,70.3776795 399.466213,72.8559255 398.430303,75.9021029 C397.389273,78.9500012 396.873878,82.6122981 396.873878,86.8872724 L396.873878,122.362331 C395.880633,122.544758 394.776458,122.678996 393.557941,122.77193 C392.339424,122.863143 391.23525,122.906169 390.243711,122.906169 C389.250466,122.906169 388.124106,122.863143 386.85951,122.77193 C385.596621,122.678996 384.470261,122.544758 383.478723,122.362331 L383.478723,52.36565 Z" id="Fill-10" fill="#11324D"></path>
                            <path d="M506.062739,80.6093935 C506.062739,78.0640283 505.724831,75.6305284 505.049014,73.3106148 C504.371492,70.9889802 503.378247,68.9685213 502.072693,67.2371911 C500.765432,65.5110239 499.094664,64.1238946 497.067215,63.0775241 C495.03806,62.0311535 492.621505,61.5062473 489.82779,61.5062473 C484.323984,61.5062473 480.105252,63.1928313 477.176715,66.5539525 C474.243059,69.9236786 472.463068,74.6065309 471.829917,80.6093935 L506.062739,80.6093935 Z M471.695095,90.7065249 C471.875995,98.3495043 473.836886,103.942768 477.584594,107.489757 C481.323769,111.040189 486.849762,112.812823 494.157451,112.812823 C500.558932,112.812823 506.648105,111.676961 512.423262,109.400072 C513.14345,110.763107 513.728816,112.425597 514.18448,114.380658 C514.63161,116.33744 514.902961,118.268407 514.993411,120.178721 C512.018796,121.452264 508.745524,122.407422 505.183836,123.044193 C501.618735,123.679244 497.676474,123.99935 493.345106,123.99935 C487.028955,123.99935 481.619012,123.111312 477.110158,121.338678 C472.59789,119.566044 468.875781,117.065425 465.945537,113.8351 C463.011881,110.606496 460.871796,106.787588 459.518457,102.373212 C458.165118,97.9605574 457.491008,93.1176517 457.491008,87.8410529 C457.491008,82.6573884 458.142932,77.8127617 459.450193,73.3106148 C460.757453,68.8084679 462.767836,64.8966255 465.472807,61.5768084 C468.177779,58.2569914 471.584166,55.618692 475.686848,53.6619103 C479.791237,51.7068496 484.637999,50.7275982 490.233963,50.7275982 C495.012461,50.7275982 499.205593,51.5467962 502.816773,53.1851921 C506.422833,54.8218671 509.44694,57.0729405 511.880561,59.9384125 C514.317595,62.8021634 516.16585,66.2149147 517.428739,70.1732242 C518.691628,74.1298128 519.324779,78.4254392 519.324779,83.0652664 C519.324779,84.3405305 519.276994,85.6829137 519.186544,87.0924161 C519.099507,88.5036395 519.00735,89.7066214 518.9169,90.7065249 L471.695095,90.7065249 Z" id="Fill-12" fill="#11324D"></path>
                            <path d="M565.055692,113.219324 C571.279686,113.219324 575.882404,110.94932 578.858726,106.397264 C581.836754,101.852092 583.323209,95.5308437 583.323209,87.4317981 C583.323209,79.3379156 581.836754,73.0373193 578.858726,68.5334515 C575.882404,64.0313046 571.279686,61.7802311 565.055692,61.7802311 C558.833404,61.7802311 554.252872,64.0313046 551.324335,68.5334515 C548.390678,73.0373193 546.928116,79.3379156 546.928116,87.4317981 C546.928116,95.5308437 548.390678,101.852092 551.324335,106.397264 C554.252872,110.94932 558.833404,113.219324 565.055692,113.219324 M565.055692,123.999695 C559.645749,123.999695 554.909916,123.068631 550.851605,121.204784 C546.791588,119.340936 543.409094,116.769756 540.700709,113.494685 C537.995737,110.219614 535.987062,106.35596 534.681507,101.895117 C533.37254,97.4394373 532.71891,92.6171837 532.71891,87.4317981 C532.71891,82.2481336 533.37254,77.427601 534.681507,72.9684792 C535.987062,68.5127994 537.995737,64.6457031 540.700709,61.3723531 C543.409094,58.0972822 546.791588,55.503729 550.851605,53.5934143 C554.909916,51.6830997 559.645749,50.7262214 565.055692,50.7262214 C570.470755,50.7262214 575.204881,51.6830997 579.264898,53.5934143 C583.323209,55.503729 586.70741,58.0972822 589.410675,61.3723531 C592.115646,64.6457031 594.126029,68.5127994 595.433289,72.9684792 C596.738843,77.427601 597.395887,82.2481336 597.395887,87.4317981 C597.395887,92.6171837 596.738843,97.4394373 595.433289,101.895117 C594.126029,106.35596 592.115646,110.219614 589.410675,113.494685 C586.70741,116.769756 583.323209,119.340936 579.264898,121.204784 C575.204881,123.068631 570.470755,123.999695 565.055692,123.999695" id="Fill-15" fill="#11324D"></path>
                            <g id="logo">
                                <g id="Group-3">
                                    <g id="akeneo">
                                        <path d="M140.010337,95.090899 C140.157979,94.8132262 140.447348,94.4921864 140.736717,94.1711466 C141.0753,93.7575492 141.506397,93.3931425 141.752466,92.9303545 C145.722948,87.917995 147.231026,80.1716516 146.758918,71.0162497 C146.640843,70.1223929 146.566068,69.3702845 146.540508,68.5256184 C146.43426,67.1631499 146.284711,65.658933 146.042648,64.1055255 C145.999348,63.9637772 145.956047,63.8220289 145.96196,63.587723 C145.924573,63.2116687 145.794672,62.7864238 145.757285,62.4103696 C145.719897,62.0343154 145.63921,61.5165129 145.601823,61.1404587 C145.564435,60.7644045 145.434534,60.3391596 145.397147,59.9631053 C145.267246,59.5378604 145.279072,59.0692486 145.149171,58.6440037 C145.06257,58.3605071 145.025183,57.9844529 144.938582,57.7009563 C142.700883,46.0633475 138.378657,33.4361013 133.052509,21.5810355 C127.782631,33.500896 121.445883,44.9722167 115.235221,53.3050028 C107.713528,63.4339267 96.481347,73.8457249 84.5504452,82.2238562 C72.4783885,73.9054293 61.3473066,63.5941017 53.6806439,53.4626881 C47.3780413,45.0063583 41.0046703,33.7817245 35.6352217,21.7849104 C35.2355983,22.7596772 34.7867612,23.8270017 34.3871379,24.8017685 C34.2394966,25.0794414 34.1843696,25.4063049 34.0367283,25.6839778 C33.7847462,26.3810718 33.3910362,27.1215327 33.1390541,27.8186267 C32.9914128,28.0962995 32.887072,28.5157207 32.7394307,28.7933935 C32.4874486,29.4904875 32.1862528,30.2801391 31.9342707,30.9772331 C31.7866294,31.254906 31.7315024,31.5817695 31.5838611,31.8594424 C31.2334515,32.7416516 30.8338282,33.7164184 30.5759328,34.6478183 C30.0719686,36.0420063 29.6723453,37.0167732 29.3160224,38.1332883 C28.9104858,39.3423611 28.5600762,40.2245703 28.3021808,41.1559702 C28.2037533,41.3410855 28.19784,41.5753914 28.0994125,41.7605066 C27.8415171,42.6919065 27.5403213,43.4815581 27.2824259,44.412958 C27.1839984,44.5980733 27.2272988,44.7398216 27.1288713,44.9249368 C26.8217622,45.9488943 26.5146531,46.9728519 26.2567577,47.9042518 C25.3787307,51.1178726 24.6424318,54.2881266 24.0478608,57.4150136 C23.0241,62.6881971 22.3822227,67.6895314 22.3131706,72.2830921 C22.2954307,72.9860098 22.3269046,73.59637 22.3091647,74.2992877 C22.2914248,75.0022055 22.2303845,75.5633749 22.2618584,76.1737351 C22.2441185,76.8766528 22.2755924,77.4870129 22.3070662,78.0973731 C22.3759273,79.0837874 22.4507016,79.8358958 22.525476,80.5880043 C22.5628631,80.9640585 22.5136494,81.0566161 22.6061636,81.1058068 C22.7734522,81.9071059 22.891527,82.8009626 23.0588155,83.6022617 C23.2320174,84.1692549 23.312705,84.6870575 23.4859069,85.2540507 C23.5725078,85.5375473 23.6158083,85.6792956 23.7024092,85.9627922 C23.7890101,86.2462888 23.9681253,86.578976 24.0055124,86.9550303 C24.0921134,87.2385269 24.1354138,87.3802752 24.2220148,87.6637718 C24.3086157,87.9472684 24.3952166,88.230765 24.5743318,88.5634522 C24.7101465,88.7543912 24.7967474,89.0378878 24.8400478,89.1796361 C24.9266488,89.4631327 25.1057639,89.79582 25.2415786,89.986759 C25.3773933,90.177698 25.513208,90.368637 25.5072947,90.6029429 C25.5938956,90.8864395 25.8222245,91.1265691 26.0013397,91.4592564 C26.1371544,91.6501954 26.272969,91.8411344 26.3162695,91.9828827 C26.5445984,92.2230124 26.7237136,92.5556997 26.9520425,92.7958293 C26.9953429,92.9375776 27.1803714,93.035959 27.2236718,93.1777073 C27.4953012,93.5595853 27.8594448,93.9906539 28.1802879,94.2799743 C28.4086168,94.5201039 28.6369457,94.7602336 28.7727604,94.9511726 C45.7419664,111.690987 70.4140797,114.836478 84.7608404,146.328518 C98.9227665,114.560562 123.039985,111.830935 140.010337,95.090899 Z" id="Shape" fill="url(#linearGradient-1)" transform="translate(84.547763, 83.954777) rotate(-27.000000) translate(-84.547763, -83.954777) "></path>
                                        <path d="M101.382657,41.8457017 C93.8609641,51.9746257 82.6287829,62.3864239 70.6978811,70.7645552 C92.0291805,85.5496343 115.917688,93.7398277 126.748338,82.5209067 C138.588824,70.2954993 131.668953,38.0034051 119.199945,10.1217345 C113.880853,22.1341526 107.642532,33.420358 101.382657,41.8457017 L101.382657,41.8457017 Z" id="Shape" fill="url(#linearGradient-2)" opacity="0.51" transform="translate(101.778205, 48.935404) rotate(-27.000000) translate(-101.778205, -48.935404) "></path>
                                        <path d="M46.7152121,70.2701344 C40.4126096,61.8138046 34.0392386,50.5891709 28.66979,38.5923567 C16.3838994,66.608818 9.66259619,98.8899982 21.5416126,111.142435 C32.4640129,122.292605 56.2546661,113.927988 77.5850134,99.0313025 C65.5129568,90.7128756 54.2893606,80.3523573 46.7152121,70.2701344 L46.7152121,70.2701344 Z" id="Shape" fill="url(#linearGradient-3)" opacity="0.51" transform="translate(46.459610, 77.434717) rotate(-27.000000) translate(-46.459610, -77.434717) "></path>
                                        <path d="M39.2137679,36.1429641 C31.6564039,53.2576986 26.3075547,72.0216214 25.8858035,86.8754517 C25.9172773,87.4858118 25.8995375,88.1887296 25.8384971,88.749899 C25.9132715,89.5020075 25.9447453,90.1123676 25.883705,90.673537 C25.9092656,91.5182031 25.9899532,92.0360056 25.9289129,92.5971751 C26.0036872,93.3492835 26.0351611,93.9596436 26.1158487,94.4774461 C26.1532359,94.8535004 26.2398368,95.136997 26.277224,95.5130512 C26.2653974,95.981663 26.3519983,96.2651596 26.3952988,96.4069079 C26.4759864,96.9247104 26.6491883,97.4917036 26.7298759,98.0095061 C27.6529196,102.299498 29.3889441,105.953235 31.9930763,108.643852 C32.2214052,108.883981 32.4497341,109.124111 32.5855488,109.31505 C49.5547548,126.054864 73.9013273,128.910498 88.248088,160.402538 C87.868303,156.876302 82.1872875,125.834584 61.8581941,102.91546 C34.9626895,72.7057121 39.2137679,36.1429641 39.2137679,36.1429641 Z" id="Shape" fill="url(#linearGradient-4)" transform="translate(57.043293, 98.272751) rotate(-27.000000) translate(-57.043293, -98.272751) "></path>
                                        <path d="M137.353949,79.9389299 C149.194435,67.7135226 142.274563,35.4214283 129.805555,7.53975775 L129.805555,7.53975775 C129.805555,7.53975775 134.134837,44.0344879 107.445913,74.365623 C86.7904416,97.8131744 81.7698741,129.573951 81.4272852,132.003744 L81.4272852,132.003744 L81.4272852,132.003744 L81.4272852,132.003744 L81.4272852,132.003744 C95.5892118,100.235788 119.70643,97.5061608 136.676783,80.7661247 C136.77521,80.5810095 137.064579,80.2599697 137.353949,79.9389299 L137.353949,79.9389299 Z" id="Shape" fill="url(#linearGradient-5)" transform="translate(112.445712, 69.771751) rotate(-27.000000) translate(-112.445712, -69.771751) "></path>
                                        <path d="M46.7152121,70.2701344 C40.4126096,61.8138046 34.0392386,50.5891709 28.66979,38.5923567 C16.3838994,66.608818 9.66259619,98.8899982 21.5416126,111.142435 C32.4640129,122.292605 56.2546661,113.927988 77.5850134,99.0313025 C65.5129568,90.7128756 54.2893606,80.3523573 46.7152121,70.2701344" id="Shape" transform="translate(46.459610, 77.434717) rotate(-27.000000) translate(-46.459610, -77.434717) "></path>
                                    </g>
                                </g>
                            </g>
                        </g>
                    </g>
                </g>
                <path d="M680.044,35.69 L654.425,35.69 C654.242332,34.7766621 654.105334,33.7720055 654.014,32.676 C653.922666,31.5799945 653.877,30.5296717 653.877,29.525 C653.877,28.5203283 653.922666,27.4928386 654.014,26.4425 C654.105334,25.3921614 654.242332,24.4103379 654.425,23.497 L719.637,23.497 C719.819668,24.4103379 719.956666,25.3693283 720.048,26.374 C720.139334,27.3786717 720.185,28.3833283 720.185,29.388 C720.185,30.3926717 720.139334,31.4658276 720.048,32.6075 C719.956666,33.7491724 719.819668,34.7766621 719.637,35.69 L694.018,35.69 L694.018,122 C691.917323,122.274001 689.634012,122.411 687.168,122.411 C684.610654,122.411 682.236011,122.274001 680.044,122 L680.044,35.69 Z M732.926,90.216 C733.108668,97.8880384 735.095148,103.504982 738.8855,107.067 C742.675852,110.629018 748.269963,112.41 755.668,112.41 C762.152699,112.41 768.317637,111.268345 774.163,108.985 C774.89367,110.355007 775.487331,112.021824 775.944,113.9855 C776.400669,115.949176 776.674666,117.88999 776.766,119.808 C773.751985,121.086673 770.441185,122.045663 766.8335,122.685 C763.225815,123.324337 759.230022,123.644 754.846,123.644 C748.452635,123.644 742.97269,122.753509 738.406,120.9725 C733.839311,119.191491 730.071848,116.67985 727.1035,113.4375 C724.135152,110.19515 721.966007,106.359189 720.596,101.9295 C719.225993,97.4998112 718.541,92.6363598 718.541,87.339 C718.541,82.132974 719.20316,77.2695226 720.5275,72.7485 C721.85184,68.2274774 723.883986,64.3001833 726.624,60.9665 C729.364014,57.6328167 732.811813,54.9841765 736.9675,53.0205 C741.123187,51.0568235 746.032305,50.075 751.695,50.075 C756.535691,50.075 760.782648,50.8969918 764.436,52.541 C768.089352,54.1850082 771.148988,56.4454856 773.615,59.3225 C776.081012,62.1995144 777.953327,65.6244801 779.232,69.5975 C780.510673,73.5705199 781.15,77.8859767 781.15,82.544 C781.15,83.8226731 781.104334,85.1698263 781.013,86.5855 C780.921666,88.0011737 780.830334,89.2113283 780.739,90.216 L732.926,90.216 Z M767.724,80.078 C767.724,77.5206539 767.381503,75.0775116 766.6965,72.7485 C766.011497,70.4194884 765.00684,68.387342 763.6825,66.652 C762.35816,64.916658 760.66851,63.5238386 758.6135,62.4735 C756.55849,61.4231614 754.115347,60.898 751.284,60.898 C745.712639,60.898 741.442848,62.5876498 738.4745,65.967 C735.506152,69.3463502 733.702337,74.0499699 733.063,80.078 L767.724,80.078 Z M845.814,109.807 C846.54467,111.085673 847.183997,112.68399 847.732,114.602 C848.280003,116.52001 848.599666,118.483657 848.691,120.493 C843.302306,122.593677 837.137368,123.644 830.196,123.644 C818.505275,123.644 809.691696,120.3332 803.755,113.7115 C797.818304,107.0898 794.85,98.1620562 794.85,86.928 C794.85,81.721974 795.580659,76.8813557 797.042,72.406 C798.503341,67.9306443 800.672486,64.0490164 803.5495,60.761 C806.426514,57.4729836 810.011312,54.8700096 814.304,52.952 C818.596688,51.0339904 823.574305,50.075 829.237,50.075 C833.073019,50.075 836.452319,50.303331 839.375,50.76 C842.297681,51.2166689 845.08332,51.9473283 847.732,52.952 C847.732,54.5046744 847.526502,56.3084897 847.1155,58.3635 C846.704498,60.4185103 846.13367,62.2223256 845.403,63.775 C840.927644,62.2223256 835.813029,61.446 830.059,61.446 C823.026298,61.446 817.774684,63.7749767 814.304,68.433 C810.833316,73.0910233 809.098,79.2559616 809.098,86.928 C809.098,95.6960438 811.061647,102.112146 814.989,106.1765 C818.916353,110.240854 824.304966,112.273 831.155,112.273 C833.895014,112.273 836.429488,112.090335 838.7585,111.725 C841.087512,111.359665 843.439321,110.720338 845.814,109.807 Z M864.309,21.579 C865.313672,21.3963324 866.432494,21.2593338 867.6655,21.168 C868.898506,21.0766662 870.017328,21.031 871.022,21.031 C872.026672,21.031 873.168327,21.0766662 874.447,21.168 C875.725673,21.2593338 876.867328,21.3963324 877.872,21.579 L877.872,62.405 C878.694004,61.1263269 879.721494,59.7563406 880.9545,58.295 C882.187506,56.8336594 883.694491,55.4865062 885.4755,54.2535 C887.256509,53.0204938 889.311488,52.0158372 891.6405,51.2395 C893.969512,50.4631628 896.549653,50.075 899.381,50.075 C907.418374,50.075 913.377814,52.3811436 917.2595,56.9935 C921.141186,61.6058564 923.082,68.4329548 923.082,77.475 L923.082,122 C922.077328,122.182668 920.958506,122.319666 919.7255,122.411 C918.492494,122.502334 917.373672,122.548 916.369,122.548 C915.364328,122.548 914.245506,122.502334 913.0125,122.411 C911.779494,122.319666 910.660672,122.182668 909.656,122 L909.656,81.174 C909.656,74.6893009 908.582844,69.917182 906.4365,66.8575 C904.290156,63.797818 901.025022,62.268 896.641,62.268 C894.174988,62.268 891.800345,62.701829 889.517,63.5695 C887.233655,64.437171 885.224342,65.8071573 883.489,67.6795 C881.753658,69.5518427 880.383672,71.9949849 879.379,75.009 C878.374328,78.0230151 877.872,81.6763119 877.872,85.969 L877.872,122 C876.867328,122.182668 875.725673,122.319666 874.447,122.411 C873.168327,122.502334 872.026672,122.548 871.022,122.548 C870.108662,122.548 869.012673,122.502334 867.734,122.411 C866.455327,122.319666 865.313672,122.182668 864.309,122 L864.309,21.579 Z M943.632,51.719 C944.636672,51.5363324 945.618495,51.3993338 946.5775,51.308 C947.536505,51.2166662 948.518328,51.171 949.523,51.171 C950.527672,51.171 951.463829,51.2166662 952.3315,51.308 C953.199171,51.3993338 954.135328,51.5363324 955.14,51.719 C955.414001,53.0890069 955.687999,54.9384884 955.962,57.2675 C956.236001,59.5965116 956.373,61.5373256 956.373,63.09 C957.286338,61.5373256 958.450826,59.9846744 959.8665,58.432 C961.282174,56.8793256 962.903324,55.4865062 964.73,54.2535 C966.556676,53.0204938 968.657321,52.0158372 971.032,51.2395 C973.406679,50.4631628 976.009653,50.075 978.841,50.075 C986.878374,50.075 992.814981,52.3811436 996.651,56.9935 C1000.48702,61.6058564 1002.405,68.4329548 1002.405,77.475 L1002.405,122 C1001.40033,122.182668 1000.25867,122.319666 998.98,122.411 C997.701327,122.502334 996.559672,122.548 995.555,122.548 C994.550328,122.548 993.431506,122.502334 992.1985,122.411 C990.965494,122.319666 989.846672,122.182668 988.842,122 L988.842,81.174 C988.842,74.6893009 987.837343,69.917182 985.828,66.8575 C983.818657,63.797818 980.622022,62.268 976.238,62.268 C973.680654,62.268 971.260345,62.7246621 968.977,63.638 C966.693655,64.5513379 964.684342,65.9669904 962.949,67.885 C961.213658,69.8030096 959.820839,72.291818 958.7705,75.3515 C957.720161,78.411182 957.195,82.0873119 957.195,86.38 L957.195,122 C956.190328,122.182668 955.071506,122.319666 953.8385,122.411 C952.605494,122.502334 951.486672,122.548 950.482,122.548 C949.477328,122.548 948.335673,122.502334 947.057,122.411 C945.778327,122.319666 944.636672,122.182668 943.632,122 L943.632,51.719 Z M1026.928,62.405 L1018.023,62.405 C1017.84033,61.6743297 1017.70333,60.8295048 1017.612,59.8705 C1017.52067,58.9114952 1017.475,57.9753379 1017.475,57.062 C1017.475,56.1486621 1017.52067,55.2125048 1017.612,54.2535 C1017.70333,53.2944952 1017.84033,52.4496703 1018.023,51.719 L1040.217,51.719 L1040.217,122 C1039.21233,122.182668 1038.09351,122.319666 1036.8605,122.411 C1035.62749,122.502334 1034.50867,122.548 1033.504,122.548 C1032.59066,122.548 1031.51751,122.502334 1030.2845,122.411 C1029.05149,122.319666 1027.93267,122.182668 1026.928,122 L1026.928,62.405 Z M1023.914,36.238 C1023.73133,35.1419945 1023.61717,33.9546731 1023.5715,32.676 C1023.52583,31.3973269 1023.503,30.2556717 1023.503,29.251 C1023.503,28.2463283 1023.52583,27.1046731 1023.5715,25.826 C1023.61717,24.5473269 1023.73133,23.4056717 1023.914,22.401 C1025.10134,22.2183324 1026.37999,22.0813338 1027.75,21.99 C1029.12001,21.8986662 1030.30733,21.853 1031.312,21.853 C1032.31667,21.853 1033.50399,21.8986662 1034.874,21.99 C1036.24401,22.0813338 1037.47699,22.2183324 1038.573,22.401 C1038.75567,23.4056717 1038.86983,24.5473269 1038.9155,25.826 C1038.96117,27.1046731 1038.984,28.2463283 1038.984,29.251 C1038.984,30.2556717 1038.96117,31.3973269 1038.9155,32.676 C1038.86983,33.9546731 1038.75567,35.1419945 1038.573,36.238 C1037.47699,36.4206676 1036.26684,36.5576662 1034.9425,36.649 C1033.61816,36.7403338 1032.45367,36.786 1031.449,36.786 C1030.35299,36.786 1029.12001,36.7403338 1027.75,36.649 C1026.37999,36.5576662 1025.10134,36.4206676 1023.914,36.238 Z M1109.128,109.807 C1109.85867,111.085673 1110.498,112.68399 1111.046,114.602 C1111.594,116.52001 1111.91367,118.483657 1112.005,120.493 C1106.61631,122.593677 1100.45137,123.644 1093.51,123.644 C1081.81927,123.644 1073.0057,120.3332 1067.069,113.7115 C1061.1323,107.0898 1058.164,98.1620562 1058.164,86.928 C1058.164,81.721974 1058.89466,76.8813557 1060.356,72.406 C1061.81734,67.9306443 1063.98649,64.0490164 1066.8635,60.761 C1069.74051,57.4729836 1073.32531,54.8700096 1077.618,52.952 C1081.91069,51.0339904 1086.88831,50.075 1092.551,50.075 C1096.38702,50.075 1099.76632,50.303331 1102.689,50.76 C1105.61168,51.2166689 1108.39732,51.9473283 1111.046,52.952 C1111.046,54.5046744 1110.8405,56.3084897 1110.4295,58.3635 C1110.0185,60.4185103 1109.44767,62.2223256 1108.717,63.775 C1104.24164,62.2223256 1099.12703,61.446 1093.373,61.446 C1086.3403,61.446 1081.08868,63.7749767 1077.618,68.433 C1074.14732,73.0910233 1072.412,79.2559616 1072.412,86.928 C1072.412,95.6960438 1074.37565,102.112146 1078.303,106.1765 C1082.23035,110.240854 1087.61897,112.273 1094.469,112.273 C1097.20901,112.273 1099.74349,112.090335 1102.0725,111.725 C1104.40151,111.359665 1106.75332,110.720338 1109.128,109.807 Z M1164.887,88.983 C1163.51699,88.8003324 1161.78168,88.6176676 1159.681,88.435 C1157.58032,88.2523324 1155.79934,88.161 1154.338,88.161 C1148.67531,88.161 1144.35985,89.2113228 1141.3915,91.312 C1138.42315,93.4126772 1136.939,96.6093119 1136.939,100.902 C1136.939,103.642014 1137.44133,105.788326 1138.446,107.341 C1139.45067,108.893674 1140.70649,110.080996 1142.2135,110.903 C1143.72051,111.725004 1145.38732,112.227332 1147.214,112.41 C1149.04068,112.592668 1150.77599,112.684 1152.42,112.684 C1154.52068,112.684 1156.68982,112.569834 1158.9275,112.3415 C1161.16518,112.113166 1163.15166,111.770669 1164.887,111.314 L1164.887,88.983 Z M1164.887,75.694 C1164.887,70.3053064 1163.51701,66.5606772 1160.777,64.46 C1158.03699,62.3593228 1154.06403,61.309 1148.858,61.309 C1145.66132,61.309 1142.67018,61.5601642 1139.8845,62.0625 C1137.09882,62.5648358 1134.38168,63.2269959 1131.733,64.049 C1129.99766,61.0349849 1129.13,57.4273543 1129.13,53.226 C1132.23535,52.2213283 1135.66031,51.4450027 1139.405,50.897 C1143.14969,50.3489973 1146.75732,50.075 1150.228,50.075 C1159.36138,50.075 1166.30264,52.1528126 1171.052,56.3085 C1175.80136,60.4641874 1178.176,67.108621 1178.176,76.242 L1178.176,120.219 C1174.97932,120.94967 1171.09769,121.703163 1166.531,122.4795 C1161.96431,123.255837 1157.30636,123.644 1152.557,123.644 C1148.08164,123.644 1144.04018,123.233004 1140.4325,122.411 C1136.82482,121.588996 1133.76518,120.264676 1131.2535,118.438 C1128.74182,116.611324 1126.80101,114.282347 1125.431,111.451 C1124.06099,108.619653 1123.376,105.194687 1123.376,101.176 C1123.376,97.248647 1124.17516,93.8008482 1125.7735,90.8325 C1127.37184,87.8641518 1129.54099,85.3981765 1132.281,83.4345 C1135.02101,81.4708235 1138.17198,80.0095048 1141.734,79.0505 C1145.29602,78.0914952 1149.04065,77.612 1152.968,77.612 C1155.89068,77.612 1158.28816,77.6804993 1160.1605,77.8175 C1162.03284,77.9545007 1163.60833,78.1143324 1164.887,78.297 L1164.887,75.694 Z M1198.315,21.579 C1199.31967,21.3963324 1200.43849,21.2593338 1201.6715,21.168 C1202.90451,21.0766662 1204.02333,21.031 1205.028,21.031 C1206.03267,21.031 1207.15149,21.0766662 1208.3845,21.168 C1209.61751,21.2593338 1210.73633,21.3963324 1211.741,21.579 L1211.741,100.765 C1211.741,103.322346 1211.96933,105.331659 1212.426,106.793 C1212.88267,108.254341 1213.49916,109.373163 1214.2755,110.1495 C1215.05184,110.925837 1215.96516,111.428166 1217.0155,111.6565 C1218.06584,111.884834 1219.18466,111.999 1220.372,111.999 C1221.194,111.999 1222.13016,111.953334 1223.1805,111.862 C1224.23084,111.770666 1225.12133,111.633668 1225.852,111.451 C1226.674,114.647683 1227.085,118.118315 1227.085,121.863 C1225.80633,122.319669 1224.25368,122.616499 1222.427,122.7535 C1220.60032,122.890501 1218.91067,122.959 1217.358,122.959 C1214.70932,122.959 1212.24334,122.639337 1209.96,122 C1207.67666,121.360663 1205.66734,120.310341 1203.932,118.849 C1202.19666,117.387659 1200.82667,115.424012 1199.822,112.958 C1198.81733,110.491988 1198.315,107.432352 1198.315,103.779 L1198.315,21.579 Z M1316.957,21.579 C1317.96167,21.3963324 1319.10333,21.2593338 1320.382,21.168 C1321.66067,21.0766662 1322.75666,21.031 1323.67,21.031 C1324.67467,21.031 1325.79349,21.0766662 1327.0265,21.168 C1328.25951,21.2593338 1329.37833,21.3963324 1330.383,21.579 L1330.383,120.082 C1326.91232,121.086672 1323.03069,121.931497 1318.738,122.6165 C1314.44531,123.301503 1309.65036,123.644 1304.353,123.644 C1299.42098,123.644 1294.74019,123.027506 1290.3105,121.7945 C1285.88081,120.561494 1282.02202,118.529347 1278.734,115.698 C1275.44598,112.866653 1272.84301,109.213356 1270.925,104.738 C1269.00699,100.262644 1268.048,94.7370329 1268.048,88.161 C1268.048,82.498305 1268.89282,77.3380233 1270.5825,72.68 C1272.27218,68.0219767 1274.66965,64.0261833 1277.775,60.6925 C1280.88035,57.3588167 1284.60214,54.7786758 1288.9405,52.952 C1293.27886,51.1253242 1298.09664,50.212 1303.394,50.212 C1305.76868,50.212 1308.16615,50.3946648 1310.5865,50.76 C1313.00685,51.1253352 1315.13032,51.5819973 1316.957,52.13 L1316.957,21.579 Z M1316.957,63.638 C1315.13032,62.9073297 1313.16668,62.3593352 1311.066,61.994 C1308.96532,61.6286648 1306.68201,61.446 1304.216,61.446 C1300.47131,61.446 1297.22901,62.1309931 1294.489,63.501 C1291.74899,64.8710069 1289.48851,66.7433215 1287.7075,69.118 C1285.92649,71.4926785 1284.60217,74.3011505 1283.7345,77.5435 C1282.86683,80.7858495 1282.433,84.3249808 1282.433,88.161 C1282.52433,96.83771 1284.57931,103.048315 1288.598,106.793 C1292.61669,110.537685 1298.09663,112.41 1305.038,112.41 C1307.41268,112.41 1309.60466,112.295834 1311.614,112.0675 C1313.62334,111.839166 1315.40433,111.496669 1316.957,111.04 L1316.957,63.638 Z M1380.662,123.644 C1375.18197,123.644 1370.38702,122.707843 1366.277,120.8355 C1362.16698,118.963157 1358.74201,116.383016 1356.002,113.095 C1353.26199,109.806984 1351.22984,105.925356 1349.9055,101.45 C1348.58116,96.9746443 1347.919,92.134026 1347.919,86.928 C1347.919,81.721974 1348.58116,76.8813557 1349.9055,72.406 C1351.22984,67.9306443 1353.26199,64.0490164 1356.002,60.761 C1358.74201,57.4729836 1362.16698,54.8700096 1366.277,52.952 C1370.38702,51.0339904 1375.18197,50.075 1380.662,50.075 C1386.14203,50.075 1390.93698,51.0339904 1395.047,52.952 C1399.15702,54.8700096 1402.58199,57.4729836 1405.322,60.761 C1408.06201,64.0490164 1410.09416,67.9306443 1411.4185,72.406 C1412.74284,76.8813557 1413.405,81.721974 1413.405,86.928 C1413.405,92.134026 1412.74284,96.9746443 1411.4185,101.45 C1410.09416,105.925356 1408.06201,109.806984 1405.322,113.095 C1402.58199,116.383016 1399.15702,118.963157 1395.047,120.8355 C1390.93698,122.707843 1386.14203,123.644 1380.662,123.644 Z M1380.662,112.821 C1386.96403,112.821 1391.62198,110.537689 1394.636,105.971 C1397.65002,101.404311 1399.157,95.0567073 1399.157,86.928 C1399.157,78.7992927 1397.65002,72.4745226 1394.636,67.9535 C1391.62198,63.4324774 1386.96403,61.172 1380.662,61.172 C1374.35997,61.172 1369.72485,63.4324774 1366.7565,67.9535 C1363.78815,72.4745226 1362.304,78.7992927 1362.304,86.928 C1362.304,95.0567073 1363.78815,101.404311 1366.7565,105.971 C1369.72485,110.537689 1374.35997,112.821 1380.662,112.821 Z M1478.069,109.807 C1478.79967,111.085673 1479.439,112.68399 1479.987,114.602 C1480.535,116.52001 1480.85467,118.483657 1480.946,120.493 C1475.55731,122.593677 1469.39237,123.644 1462.451,123.644 C1450.76027,123.644 1441.9467,120.3332 1436.01,113.7115 C1430.0733,107.0898 1427.105,98.1620562 1427.105,86.928 C1427.105,81.721974 1427.83566,76.8813557 1429.297,72.406 C1430.75834,67.9306443 1432.92749,64.0490164 1435.8045,60.761 C1438.68151,57.4729836 1442.26631,54.8700096 1446.559,52.952 C1450.85169,51.0339904 1455.82931,50.075 1461.492,50.075 C1465.32802,50.075 1468.70732,50.303331 1471.63,50.76 C1474.55268,51.2166689 1477.33832,51.9473283 1479.987,52.952 C1479.987,54.5046744 1479.7815,56.3084897 1479.3705,58.3635 C1478.9595,60.4185103 1478.38867,62.2223256 1477.658,63.775 C1473.18264,62.2223256 1468.06803,61.446 1462.314,61.446 C1455.2813,61.446 1450.02968,63.7749767 1446.559,68.433 C1443.08832,73.0910233 1441.353,79.2559616 1441.353,86.928 C1441.353,95.6960438 1443.31665,102.112146 1447.244,106.1765 C1451.17135,110.240854 1456.55997,112.273 1463.41,112.273 C1466.15001,112.273 1468.68449,112.090335 1471.0135,111.725 C1473.34251,111.359665 1475.69432,110.720338 1478.069,109.807 Z M1495.468,109.259 C1497.93401,110.263672 1500.65115,111.06283 1503.6195,111.6565 C1506.58785,112.25017 1509.53332,112.547 1512.456,112.547 C1514.55668,112.547 1516.56599,112.318669 1518.484,111.862 C1520.40201,111.405331 1522.06883,110.720338 1523.4845,109.807 C1524.90017,108.893662 1526.04183,107.77484 1526.9095,106.4505 C1527.77717,105.12616 1528.211,103.642008 1528.211,101.998 C1528.211,100.171324 1527.8685,98.6643393 1527.1835,97.477 C1526.4985,96.2896607 1525.58517,95.2850041 1524.4435,94.463 C1523.30183,93.6409959 1521.97751,92.9331696 1520.4705,92.3395 C1518.96349,91.7458304 1517.34234,91.1750027 1515.607,90.627 L1510.812,88.846 C1504.96664,86.653989 1500.71968,84.1880137 1498.071,81.448 C1495.42232,78.7079863 1494.098,75.0090233 1494.098,70.351 C1494.098,64.1403023 1496.31281,59.2083516 1500.7425,55.555 C1505.17219,51.9016484 1511.67962,50.075 1520.265,50.075 C1523.82702,50.075 1527.32048,50.4174966 1530.7455,51.1025 C1534.17052,51.7875034 1537.16165,52.5866621 1539.719,53.5 C1539.53633,55.3266758 1539.19384,57.1533242 1538.6915,58.98 C1538.18916,60.8066758 1537.57267,62.4963256 1536.842,64.049 C1534.83266,63.3183297 1532.43518,62.6105034 1529.6495,61.9255 C1526.86382,61.2404966 1523.87268,60.898 1520.676,60.898 C1517.29665,60.898 1514.30551,61.4916607 1511.7025,62.679 C1509.09949,63.8663393 1507.798,65.9669849 1507.798,68.981 C1507.798,70.5336744 1508.11766,71.8579945 1508.757,72.954 C1509.39634,74.0500055 1510.26399,74.9861628 1511.36,75.7625 C1512.45601,76.5388372 1513.71183,77.2009973 1515.1275,77.749 C1516.54317,78.2970027 1518.07299,78.8449973 1519.717,79.393 L1525.745,81.448 C1527.93701,82.1786703 1530.01482,83.0463283 1531.9785,84.051 C1533.94218,85.0556717 1535.63183,86.3114925 1537.0475,87.8185 C1538.46317,89.3255075 1539.60483,91.1521559 1540.4725,93.2985 C1541.34017,95.4448441 1541.774,98.0249849 1541.774,101.039 C1541.774,104.41835 1541.08901,107.500819 1539.719,110.2865 C1538.34899,113.072181 1536.40818,115.446824 1533.8965,117.4105 C1531.38482,119.374176 1528.34802,120.903995 1524.786,122 C1521.22398,123.096005 1517.29669,123.644 1513.004,123.644 C1508.61998,123.644 1504.78402,123.34717 1501.496,122.7535 C1498.20798,122.15983 1495.14835,121.360672 1492.317,120.356 C1492.49967,118.529324 1492.88783,116.679843 1493.4815,114.8075 C1494.07517,112.935157 1494.73733,111.085676 1495.468,109.259 Z" id="Technical-docs" fill="#11324D"></path>
            </g>
        </g>
    </g>
</svg>