<svg xmlns="http://www.w3.org/2000/svg" width="1135" height="134">
  <defs>
    <linearGradient id="a" x1="3.65%" x2="100.42%" y1="60.21%" y2="61.63%">
      <stop stop-color="#5F2385" offset="4.29%"/>
      <stop stop-color="#9452BA" offset="96.93%"/>
    </linearGradient>
    <linearGradient id="b" x1="47.74%" x2="22.45%" y1="158.61%" y2="-9.02%">
      <stop stop-color="#5F2385" offset="4.29%"/>
      <stop stop-color="#FFF" offset="100%"/>
    </linearGradient>
    <linearGradient id="c" x1="51.12%" x2="54.2%" y1="155.15%" y2="-18.03%">
      <stop stop-color="#5F2385" offset="4.29%"/>
      <stop stop-color="#FFF" offset="100%"/>
    </linearGradient>
    <linearGradient id="d" x1="45.94%" x2="39.72%" y1="5.06%" y2="108.61%">
      <stop stop-color="#4F1374" offset="23.31%"/>
      <stop stop-color="#5F2385" offset="84.05%"/>
    </linearGradient>
    <linearGradient id="e" x1="8.19%" x2="72.77%" y1="-5.55%" y2="98.72%">
      <stop stop-color="#4F1374" offset="23.31%"/>
      <stop stop-color="#5F2385" offset="84.05%"/>
    </linearGradient>
  </defs>
  <g fill="none" fill-rule="evenodd">
    <path fill="#11324D" d="M196.12 83.48c-1.35-.18-3.07-.36-5.14-.55-2.08-.18-3.83-.27-5.28-.27-5.6 0-9.85 1.05-12.78 3.14-2.94 2.1-4.4 5.27-4.4 9.55 0 2.73.5 4.87 1.5 6.4.98 1.56 2.22 2.74 3.7 3.56 1.5.83 3.14 1.33 4.95 1.5 1.8.2 3.5.3 5.14.3 2.08 0 4.22-.13 6.43-.36 2.2-.22 4.18-.56 5.9-1.02V83.48zm0-13.24c0-5.36-1.35-9.1-4.06-11.2-2.7-2.08-6.63-3.12-11.77-3.12-3.17 0-6.12.25-8.87.75-2.75.5-5.44 1.16-8.05 1.98-1.72-3-2.57-6.6-2.57-10.78 3.07-1 6.46-1.78 10.16-2.32 3.7-.55 7.26-.82 10.68-.82 9.02 0 15.88 2.07 20.57 6.2 4.7 4.15 7.05 10.76 7.05 19.86v43.8c-3.16.72-7 1.47-11.5 2.24-4.52.77-9.12 1.16-13.8 1.16-4.43 0-8.42-.4-11.98-1.23-3.56-.82-6.6-2.13-9.07-3.95-2.48-1.82-4.4-4.14-5.75-6.96-1.35-2.82-2.03-6.23-2.03-10.24 0-3.9.8-7.34 2.37-10.3 1.57-2.95 3.7-5.4 6.42-7.37 2.7-1.95 5.82-3.4 9.34-4.36 3.5-.97 7.2-1.45 11.1-1.45 2.87 0 5.24.07 7.1.2 1.84.15 3.4.3 4.66.5v-2.6zM242.5 80.07l25.47-33.7c1.17-.2 2.34-.32 3.52-.4 1.16-.1 2.37-.15 3.64-.15 1.35 0 2.64.04 3.86.14 1.2.1 2.45.22 3.72.4l-25.47 32.75 29.26 37.26c-1.26.18-2.48.32-3.65.4-1.17.1-2.4.15-3.65.15-1.26 0-2.53-.04-3.8-.13-1.26-.1-2.52-.23-3.78-.4l-29.12-36.3zm-13.64-63.72c1-.18 2.1-.32 3.32-.4 1.22-.1 2.32-.15 3.32-.15s2.1.05 3.38.14c1.26.1 2.4.23 3.38.4v100.02c-1 .18-2.12.32-3.38.4-1.27.1-2.4.15-3.38.15-1 0-2.1-.04-3.32-.13-1.22-.1-2.32-.23-3.32-.4V16.34zM340.63 74.6c0-2.54-.34-4.97-1.02-7.3-.66-2.3-1.66-4.33-2.96-6.06-1.3-1.73-2.98-3.12-5-4.16-2.04-1.05-4.45-1.57-7.25-1.57-5.5 0-9.73 1.7-12.66 5.05-2.93 3.37-4.7 8.06-5.34 14.06h34.23zm-34.37 10.1c.18 7.65 2.14 13.24 5.9 16.8 3.73 3.54 9.26 5.3 16.56 5.3 6.4 0 12.5-1.12 18.27-3.4.7 1.36 1.3 3.03 1.75 4.98.45 1.96.72 3.9.8 5.8-2.97 1.27-6.24 2.23-9.8 2.86-3.57.64-7.5.96-11.84.96-6.3 0-11.72-.9-16.23-2.66-4.5-1.77-8.23-4.27-11.16-7.5-2.92-3.23-5.06-7.05-6.42-11.47-1.35-4.4-2.03-9.25-2.03-14.53 0-5.18.66-10.03 1.97-14.53 1.3-4.5 3.3-8.4 6.02-11.72 2.7-3.32 6.1-5.96 10.2-7.92 4.12-1.95 8.96-2.93 14.56-2.93 4.78 0 8.97.82 12.58 2.46 3.6 1.62 6.63 3.87 9.06 6.74 2.44 2.86 4.3 6.27 5.55 10.23 1.25 3.96 1.9 8.26 1.9 12.9 0 1.27-.06 2.6-.15 4.02-.1 1.4-.18 2.6-.27 3.6h-47.22zM371.48 46.37c1-.2 1.96-.32 2.9-.4.96-.1 1.92-.15 2.92-.15s1.9.04 2.77.14c.86.1 1.78.22 2.77.4.27 1.37.54 3.2.82 5.53.27 2.3.4 4.25.4 5.8.9-1.55 2.05-3.1 3.45-4.65 1.4-1.55 3-2.93 4.8-4.16 1.82-1.24 3.9-2.24 6.24-3 2.34-.78 4.9-1.17 7.7-1.17 7.95 0 13.8 2.3 17.6 6.9 3.8 4.58 5.7 11.38 5.7 20.4v44.33c-1 .18-2.14.32-3.4.4-1.26.1-2.4.15-3.38.15-1 0-2.1-.04-3.32-.13-1.2-.1-2.32-.23-3.3-.4V75.7c0-6.46-1-11.2-3-14.26-1.97-3.04-5.13-4.57-9.46-4.57-2.52 0-4.92.46-7.17 1.37-2.24.9-4.23 2.32-5.94 4.23-1.72 1.9-3.1 4.4-4.13 7.43-1.04 3.05-1.56 6.7-1.56 11v35.46c-1 .18-2.1.32-3.3.4-1.23.1-2.33.15-3.33.15s-2.12-.04-3.38-.13c-1.26-.1-2.4-.23-3.38-.4v-70zM494.06 74.6c0-2.54-.34-4.97-1-7.3-.7-2.3-1.68-4.33-3-6.06-1.3-1.73-2.97-3.12-5-4.16-2.02-1.05-4.44-1.57-7.23-1.57-5.5 0-9.72 1.7-12.65 5.05-2.94 3.37-4.72 8.06-5.35 14.06h34.23zM459.7 84.7c.18 7.65 2.14 13.24 5.88 16.8 3.74 3.54 9.27 5.3 16.58 5.3 6.4 0 12.5-1.12 18.26-3.4.72 1.36 1.3 3.03 1.76 4.98.45 1.96.72 3.9.8 5.8-2.96 1.27-6.23 2.23-9.8 2.86-3.56.64-7.5.96-11.83.96-6.32 0-11.73-.9-16.24-2.66-4.5-1.77-8.22-4.27-11.15-7.5-2.94-3.23-5.08-7.05-6.43-11.47-1.35-4.4-2.03-9.25-2.03-14.53 0-5.18.64-10.03 1.95-14.53 1.3-4.5 3.32-8.4 6.02-11.72 2.7-3.32 6.1-5.96 10.22-7.92 4.1-1.95 8.94-2.93 14.53-2.93 4.78 0 8.98.82 12.6 2.46 3.6 1.62 6.62 3.87 9.05 6.74 2.44 2.86 4.3 6.27 5.55 10.23 1.26 3.96 1.9 8.26 1.9 12.9 0 1.27-.05 2.6-.14 4.02l-.28 3.6H459.7zM553.06 107.22c6.22 0 10.82-2.27 13.8-6.82 2.98-4.55 4.46-10.87 4.46-18.97s-1.48-14.4-4.46-18.9c-2.98-4.5-7.58-6.75-13.8-6.75-6.23 0-10.8 2.25-13.74 6.75-2.93 4.5-4.4 10.8-4.4 18.9 0 8.1 1.47 14.42 4.4 18.97 2.93 4.55 7.5 6.82 13.74 6.82m0 10.78c-5.4 0-10.15-.93-14.2-2.8-4.07-1.86-7.45-4.43-10.16-7.7-2.7-3.28-4.7-7.14-6.02-11.6-1.3-4.46-1.96-9.28-1.96-14.47 0-5.18.65-10 1.96-14.46 1.3-4.46 3.32-8.32 6.02-11.6 2.7-3.27 6.1-5.87 10.15-7.78 4.06-1.92 8.8-2.87 14.2-2.87 5.42 0 10.15.95 14.2 2.86 4.07 1.9 7.46 4.5 10.16 7.77 2.72 3.28 4.73 7.14 6.03 11.6 1.3 4.46 1.97 9.28 1.97 14.46 0 5.2-.66 10-1.97 14.47-1.3 4.46-3.3 8.32-6.02 11.6-2.7 3.27-6.08 5.84-10.14 7.7-4.06 1.87-8.8 2.8-14.2 2.8"/>
    <path fill="url(#a)" d="M140 95.1c.16-.3.45-.6.74-.93.34-.4.77-.78 1-1.24 3.98-5 5.5-12.76 5.02-21.9-.12-.9-.2-1.66-.22-2.5-.1-1.37-.26-2.87-.5-4.42-.04-.14-.08-.28-.08-.5-.04-.4-.17-.8-.2-1.2l-.16-1.26c-.04-.38-.17-.8-.2-1.18-.13-.42-.12-.9-.25-1.32-.1-.28-.12-.66-.2-.94-2.25-11.64-6.57-24.26-11.9-36.12-5.27 11.92-11.6 23.4-17.8 31.73-7.54 10.13-18.77 20.55-30.7 28.92-12.07-8.3-23.2-18.63-30.87-28.76C47.38 45 41 33.78 35.64 21.78L34.4 24.8c-.16.28-.22.6-.36.88-.26.7-.65 1.44-.9 2.14-.15.28-.25.7-.4.97l-.8 2.18c-.15.27-.2.6-.36.88-.35.88-.75 1.86-1 2.8-.5 1.38-.9 2.36-1.26 3.47-.4 1.2-.76 2.1-1.02 3.03-.1.18-.1.42-.2.6-.26.93-.56 1.72-.82 2.65-.1.2-.05.34-.15.52-.3 1.03-.62 2.05-.87 2.98-.88 3.22-1.62 6.4-2.2 9.52C23 62.7 22.37 67.7 22.3 72.28c0 .7.03 1.32 0 2.02 0 .7-.07 1.26-.04 1.87-.02.7.02 1.32.05 1.93.08.98.15 1.74.23 2.5.03.36-.02.46.08.5.17.8.3 1.7.46 2.5.17.57.25 1.1.43 1.65.07.3.12.43.2.7.1.3.27.63.3 1l.22.7c.1.3.18.58.35.9.14.2.23.5.27.63.1.28.27.62.4.8.14.2.27.4.27.62.1.3.32.53.5.86.14.2.27.38.32.52.22.24.4.58.63.82.05.14.23.24.27.38.28.38.64.8.96 1.1.23.24.46.48.6.67 16.96 16.74 41.63 19.9 55.98 51.38 14.16-31.77 38.28-34.5 55.25-51.24z" transform="rotate(-27 66.052 105.947)"/>
    <path fill="url(#b)" d="M101.38 41.85C93.86 51.97 82.63 62.4 70.7 70.75c21.33 14.8 45.22 23 56.05 11.77 11.84-12.22 4.92-44.52-7.55-72.4-5.32 12-11.56 23.3-17.82 31.73z" opacity=".51" transform="rotate(-27 83.282 70.927)"/>
    <path fill="url(#c)" d="M46.72 70.27C40.42 61.8 34.04 50.6 28.67 38.6c-12.3 28-19 60.3-7.13 72.54 10.92 11.15 34.7 2.8 56.05-12.1-12.1-8.33-23.3-18.7-30.88-28.77z" opacity=".51" transform="rotate(-27 27.964 99.427)"/>
    <path fill="url(#d)" d="M39.2 36.14c-7.54 17.12-12.9 35.88-13.3 50.74.02.6 0 1.3-.06 1.87.07.75.1 1.36.04 1.92.03.85.1 1.37.05 1.93.07.75.1 1.36.2 1.88.02.37.1.66.15 1.03 0 .48.07.77.12.9.08.52.25 1.1.33 1.6.92 4.3 2.66 7.95 5.26 10.64.22.24.45.48.6.68 16.95 16.73 41.3 19.6 55.65 51.08-.38-3.52-6.06-34.57-26.4-57.48-26.9-30.2-22.64-66.78-22.64-66.78z" transform="rotate(-27 38.547 120.265)"/>
    <path fill="url(#e)" d="M137.35 79.94c11.84-12.23 4.92-44.52-7.54-72.4 0 0 4.33 36.5-22.35 66.83C86.8 97.8 81.77 129.57 81.43 132c14.16-31.76 38.28-34.5 55.25-51.23.1-.2.38-.5.67-.83z" transform="rotate(-27 93.95 91.764)"/>
    <path d="M31.43 64.93C21.98 60.26 11.2 53.15.97 44.9c1.78 30.54 10.44 62.36 26.6 67.88C42.34 117.76 59.74 99.5 72 76.55c-14.54-1.93-29.24-6.07-40.57-11.62"/>
    <path fill="#11324D" d="M642.67 18.22c1-.2 2.25-.32 3.74-.4 1.5-.1 2.9-.15 4.16-.15 1.27 0 2.56.05 3.88.14 1.3.1 2.5.23 3.6.42l16.73 81.46 20.13-81.46c1.08-.2 2.3-.32 3.6-.4 1.3-.1 2.56-.15 3.74-.15 1.1 0 2.3.05 3.67.14 1.37.1 2.55.23 3.55.42l20.26 82.28 17-82.28c1-.2 2.07-.32 3.2-.4 1.14-.1 2.25-.15 3.34-.15 1.27 0 2.56.05 3.88.14 1.3.1 2.47.23 3.46.42L737.06 116c-1.1.18-2.36.32-3.8.4-1.46.1-2.78.14-3.96.14-1.27 0-2.67-.04-4.2-.13-1.55-.08-2.96-.22-4.23-.4l-19.3-76.57-19.6 76.57c-1.26.18-2.65.32-4.14.4-1.5.1-2.88.14-4.15.14-1.1 0-2.33-.04-3.74-.13-1.4-.08-2.65-.22-3.74-.4l-23.53-97.78zM780.3 84.45c.2 7.6 2.16 13.2 5.92 16.73 3.76 3.53 9.32 5.3 16.66 5.3 6.44 0 12.56-1.13 18.36-3.4.73 1.36 1.3 3 1.77 4.96.46 1.95.73 3.88.82 5.78-3 1.27-6.27 2.23-9.86 2.86-3.58.63-7.54.95-11.9.95-6.34 0-11.78-.88-16.32-2.65-4.53-1.77-8.27-4.26-11.22-7.48-2.94-3.22-5.1-7.03-6.46-11.42-1.36-4.4-2.04-9.23-2.04-14.5 0-5.16.66-9.98 1.98-14.47 1.3-4.48 3.33-8.38 6.05-11.7 2.72-3.3 6.14-5.93 10.27-7.88 4.12-1.95 9-2.92 14.62-2.92 4.8 0 9.02.82 12.64 2.45 3.63 1.63 6.67 3.87 9.12 6.73 2.44 2.86 4.3 6.26 5.57 10.2 1.27 3.94 1.9 8.23 1.9 12.85 0 1.27-.04 2.6-.13 4-.1 1.42-.18 2.62-.27 3.62H780.3zm34.55-10.07c0-2.53-.34-4.96-1.02-7.27-.68-2.3-1.68-4.32-3-6.04-1.3-1.73-3-3.1-5.03-4.15-2.04-1.03-4.46-1.56-7.27-1.56-5.53 0-9.77 1.68-12.72 5.04-2.93 3.35-4.73 8.02-5.36 14h34.4zm30.87-58.07c1-.17 2.1-.3 3.33-.4 1.23-.1 2.34-.13 3.33-.13 1 0 2.13.04 3.4.13 1.27.1 2.4.23 3.4.4v38.36c1.64-2.72 4.17-5.07 7.62-7.07s7.62-3 12.5-3c4.18 0 8.04.68 11.57 2.04 3.54 1.36 6.58 3.47 9.1 6.32 2.55 2.86 4.52 6.5 5.93 10.88 1.4 4.4 2.1 9.6 2.1 15.58 0 11.96-3.37 21.33-10.12 28.08-6.76 6.75-16.48 10.13-29.18 10.13-4 0-8.1-.38-12.3-1.15-4.22-.77-7.78-1.66-10.68-2.66v-97.5zm13.46 88.4c1.64.56 3.38.94 5.24 1.17 1.86.22 3.8.34 5.78.34 3.35 0 6.46-.5 9.32-1.56 2.85-1.04 5.32-2.63 7.4-4.76 2.1-2.13 3.75-4.85 4.97-8.16 1.22-3.3 1.83-7.23 1.83-11.76 0-7.53-1.32-13.37-3.95-17.54s-6.98-6.26-13.05-6.26c-2.1 0-4.15.34-6.2 1.02-2.03.68-3.9 1.77-5.63 3.26-1.73 1.5-3.1 3.5-4.15 6-1.04 2.48-1.57 5.5-1.57 9.03v29.24zm148.38-11.28h-37.13L963.77 116c-1.18.18-2.36.32-3.54.4-1.18.1-2.36.14-3.53.14-1.27 0-2.52-.04-3.74-.13-1.23-.08-2.34-.22-3.34-.4l31.83-97.78c1.18-.2 2.45-.32 3.8-.4 1.37-.1 2.77-.15 4.22-.15 1.27 0 2.6.05 3.95.14 1.36.1 2.67.23 3.94.42l31.7 97.78c-1.1.18-2.32.32-3.68.4-1.36.1-2.68.14-3.95.14-1.18 0-2.38-.04-3.6-.13-1.23-.08-2.38-.22-3.47-.4l-6.8-22.58zm-33.46-12.1h29.8l-14.97-49.9-14.83 49.9zm69.23-63.24c1.36-.18 2.97-.36 4.83-.54 1.85-.2 3.8-.34 5.84-.48 2.04-.14 4.08-.25 6.12-.34 2.04-.1 4.02-.14 5.92-.14 5 0 9.72.5 14.2 1.5 4.5 1 8.44 2.72 11.84 5.17 3.4 2.45 6.1 5.7 8.1 9.72 2 4.04 3 9.1 3 15.17 0 6.34-1.08 11.62-3.2 15.84-2.14 4.22-4.95 7.6-8.44 10.13-3.5 2.55-7.46 4.34-11.9 5.38-4.44 1.05-8.98 1.57-13.6 1.57-1.72 0-3.24-.02-4.56-.07-1.3-.05-2.74-.16-4.28-.34V116c-2.18.27-4.5.4-6.94.4-1.08 0-2.24 0-3.46-.06-1.23-.05-2.38-.16-3.47-.34V18.08zm13.87 50.46c1.45.18 2.72.3 3.8.4 1.1.1 2.68.14 4.77.14 2.8 0 5.6-.3 8.36-.88 2.77-.6 5.24-1.66 7.4-3.2 2.2-1.54 3.94-3.65 5.25-6.32 1.3-2.68 1.97-6.15 1.97-10.4 0-3.73-.56-6.85-1.7-9.4-1.13-2.53-2.7-4.57-4.7-6.1-1.98-1.55-4.4-2.64-7.2-3.28-2.8-.63-5.85-.95-9.1-.95-3.36 0-6.3.14-8.85.4v39.6zm63.1-50.32c1.1-.2 2.23-.32 3.4-.4 1.18-.1 2.36-.15 3.54-.15 1.18 0 2.36.05 3.54.14 1.17.1 2.3.23 3.4.42V116c-1.1.18-2.2.32-3.34.4-1.13.1-2.33.14-3.6.14-1.18 0-2.38-.04-3.6-.13-1.23-.08-2.34-.22-3.34-.4V18.22z"/>
  </g>
</svg>